<?xml version="1.0" standalone="no"?>
<!DOCTYPE svg PUBLIC "-//W3C//DTD SVG 20010904//EN"
 "http://www.w3.org/TR/2001/REC-SVG-20010904/DTD/svg10.dtd">
<svg version="1.0" xmlns="http://www.w3.org/2000/svg"
 width="1285.000000pt" height="1285.000000pt" viewBox="0 0 1285.000000 1285.000000"
 preserveAspectRatio="xMidYMid meet">
<metadata>
Created by potrace 1.11, written by Peter Selinger 2001-2013
</metadata>
<g transform="translate(0.000000,1285.000000) scale(0.100000,-0.100000)"
fill="#000000" stroke="none">
<path d="M6309 11536 c-2 -2 -26 -7 -54 -11 -203 -26 -417 -134 -573 -288
-147 -144 -268 -371 -288 -541 -4 -28 -8 -54 -10 -57 -6 -11 -6 -191 1 -234 3
-22 10 -61 16 -86 6 -26 12 -53 13 -60 2 -8 6 -22 11 -31 11 -26 1 -41 -41
-63 -21 -11 -102 -55 -179 -98 -186 -105 -294 -165 -405 -225 -36 -19 -94 -52
-130 -72 -36 -21 -193 -109 -350 -195 -157 -87 -310 -171 -340 -188 -30 -17
-142 -79 -247 -138 l-193 -107 -46 44 c-25 25 -62 57 -82 72 -21 15 -39 30
-42 33 -11 13 -136 81 -189 103 -58 25 -147 54 -191 62 -14 3 -43 9 -65 14
-43 10 -293 7 -335 -4 -14 -3 -41 -9 -60 -12 -57 -11 -201 -64 -260 -96 -151
-84 -288 -208 -377 -345 -295 -451 -189 -1029 248 -1357 76 -57 220 -130 313
-157 39 -12 73 -23 75 -25 3 -3 3 -691 -2 -1880 l-1 -232 -60 -17 c-94 -25
-232 -96 -321 -162 -197 -147 -333 -352 -392 -591 -27 -107 -24 -343 6 -452
103 -385 397 -667 786 -755 84 -19 285 -26 380 -13 182 25 401 125 526 240 8
7 29 26 46 41 l30 28 50 -29 c27 -16 71 -41 99 -57 130 -72 231 -129 254 -144
14 -9 50 -29 80 -45 30 -16 96 -53 147 -83 50 -29 94 -53 98 -53 4 0 19 -8 33
-18 15 -11 52 -32 82 -49 79 -43 125 -69 405 -228 138 -78 270 -153 295 -167
25 -14 63 -35 85 -48 22 -12 93 -52 158 -88 112 -62 118 -67 111 -91 -39 -148
-43 -302 -11 -471 16 -85 105 -290 151 -348 191 -239 362 -356 622 -423 74
-19 116 -23 244 -23 139 0 166 3 260 28 330 89 582 309 707 616 27 66 37 98
59 200 20 88 8 328 -20 416 -5 16 2 24 31 41 21 11 121 66 223 123 102 57 204
114 228 127 87 48 143 79 362 201 124 69 250 139 280 155 30 17 132 73 225
125 94 52 193 107 220 122 52 28 125 69 185 103 19 11 62 35 94 53 l60 32 55
-47 c368 -315 897 -340 1291 -63 402 283 545 802 341 1237 -126 268 -372 479
-653 559 -41 12 -58 22 -59 34 0 9 0 217 1 462 1 245 2 712 3 1039 l2 594 65
22 c344 117 590 370 685 705 37 131 44 323 15 458 -82 389 -369 682 -770 788
-208 55 -484 28 -689 -67 -86 -40 -215 -126 -271 -181 l-45 -44 -140 79 c-77
43 -165 93 -195 109 -30 17 -68 38 -85 48 -16 10 -50 29 -75 43 -25 13 -77 43
-117 66 -89 50 -135 77 -193 109 -59 33 -297 167 -535 302 -104 59 -212 120
-240 135 -107 59 -281 159 -302 172 -18 12 -20 19 -12 46 39 133 44 324 14
463 -45 200 -134 361 -281 507 -149 149 -329 244 -544 288 -46 10 -294 22
-301 15z m221 -479 c61 -15 81 -22 125 -42 154 -70 276 -223 305 -383 33 -186
-19 -359 -149 -490 -131 -133 -339 -190 -528 -146 -172 40 -330 180 -388 344
-109 309 80 646 400 715 52 11 191 12 235 2z m799 -1325 c86 -49 282 -160 436
-247 154 -86 297 -168 317 -181 21 -13 40 -24 43 -24 5 0 223 -122 265 -149
14 -8 27 -16 30 -16 3 0 21 -10 40 -21 19 -12 161 -93 315 -179 154 -87 284
-161 288 -165 5 -4 4 -25 -2 -46 -18 -69 -24 -127 -25 -239 -1 -118 4 -154 30
-259 9 -37 15 -68 13 -70 -3 -3 -82 -48 -279 -158 -25 -14 -112 -64 -195 -110
-843 -477 -1237 -698 -1244 -698 -4 0 -31 40 -60 89 -112 189 -348 458 -544
620 -59 49 -77 70 -78 90 0 14 -3 220 -5 456 -2 237 -6 584 -7 771 l-4 341 74
23 c127 39 330 158 404 236 12 13 25 24 27 24 3 0 75 -40 161 -88z m-1567 8
c107 -86 246 -158 371 -192 l47 -12 1 -136 c0 -74 2 -241 4 -370 2 -129 6
-425 9 -656 l6 -421 -77 -64 c-221 -182 -482 -487 -590 -691 l-20 -37 -99 56
c-54 30 -126 69 -159 87 -33 19 -77 43 -97 55 -67 38 -101 57 -193 107 -49 27
-98 54 -107 59 -9 6 -41 23 -70 39 -29 16 -107 59 -173 96 -66 37 -145 81
-175 97 -30 17 -116 64 -190 106 -74 41 -156 86 -182 101 -27 14 -69 38 -95
52 -27 15 -84 47 -128 71 -44 24 -83 47 -87 51 -4 4 2 39 13 77 40 146 44 334
8 469 -6 21 -7 42 -2 46 6 6 365 205 553 308 25 13 59 32 75 42 17 10 57 32
90 50 33 18 116 64 185 103 69 38 186 103 260 143 74 41 142 78 150 84 20 12
479 267 544 302 28 16 54 28 58 28 5 0 36 -23 70 -50z m-2828 -754 c79 -25
168 -81 228 -142 165 -166 202 -422 92 -637 -58 -112 -215 -240 -323 -262 -9
-2 -36 -8 -61 -14 -61 -14 -202 -7 -270 14 -58 18 -168 79 -210 118 -150 137
-213 357 -159 552 50 180 213 334 404 381 64 16 235 10 299 -10z m7280 3 c346
-91 515 -484 341 -794 -77 -135 -232 -246 -380 -270 -48 -7 -169 -7 -209 0
-105 21 -223 84 -295 160 -142 151 -189 352 -126 542 70 209 225 335 460 376
35 6 166 -3 209 -14z m-6660 -1283 c33 -18 122 -67 196 -109 74 -41 155 -86
180 -99 25 -14 128 -71 230 -128 102 -56 205 -114 230 -128 25 -13 106 -58
180 -99 184 -102 209 -117 410 -228 96 -54 200 -111 230 -127 48 -26 118 -67
128 -74 3 -2 -1 -25 -23 -134 -17 -81 -11 -349 10 -462 l7 -35 -369 -208
c-202 -115 -420 -238 -483 -273 -63 -36 -133 -75 -155 -87 -22 -13 -157 -89
-300 -169 -143 -80 -267 -150 -275 -156 -17 -11 -201 -113 -212 -118 -5 -2
-33 19 -63 46 -108 99 -266 188 -402 228 l-62 18 4 1055 c3 579 7 1056 9 1059
3 2 37 15 77 29 129 43 289 135 354 203 16 17 31 30 33 30 2 0 32 -15 66 -34z
m5922 -73 c87 -60 192 -111 281 -137 l78 -23 0 -1004 c0 -552 -2 -1029 -3
-1059 l-4 -55 -67 -22 c-135 -43 -251 -109 -363 -204 l-56 -49 -114 64 c-62
34 -135 75 -163 91 -27 15 -75 42 -105 58 -30 17 -129 72 -220 122 -91 51
-196 109 -235 130 -38 21 -92 51 -118 67 -26 15 -50 28 -52 28 -2 0 -45 24
-97 53 -51 30 -124 71 -163 92 -38 21 -149 82 -245 135 -96 54 -200 112 -230
128 -61 34 -59 27 -45 147 15 123 9 355 -10 445 -18 82 -34 65 151 170 92 52
193 109 223 126 31 17 210 118 399 225 449 254 420 237 477 268 28 15 69 39
92 54 24 15 44 27 46 27 2 0 95 52 207 115 l203 114 37 -33 c20 -18 64 -51 96
-73z m-2914 -248 c39 -38 86 -90 107 -115 20 -25 42 -51 48 -58 25 -26 100
-129 145 -198 105 -161 185 -356 205 -499 9 -66 10 -225 0 -295 -27 -208 -167
-490 -339 -684 l-43 -48 1 393 c1 436 0 451 -61 514 -52 53 -110 78 -180 78
-101 0 -183 -51 -224 -139 -21 -45 -22 -58 -23 -450 0 -222 -2 -404 -4 -404
-3 0 -17 15 -33 33 -143 162 -253 348 -314 527 -79 232 -72 484 20 705 48 116
155 306 213 378 135 168 157 193 274 309 l80 78 29 -27 c17 -16 61 -59 99 -98z
m-1052 -1796 c0 -11 78 -137 132 -212 118 -167 275 -334 438 -466 25 -20 51
-42 58 -48 7 -7 21 -19 32 -26 18 -13 19 -41 21 -765 2 -413 1 -753 -2 -755
-2 -2 -38 -14 -79 -27 -63 -20 -169 -69 -255 -117 -13 -7 -60 -45 -105 -84
-92 -79 -76 -78 -180 -18 -30 17 -161 91 -290 164 -129 73 -377 213 -550 311
-173 98 -340 191 -370 207 -30 16 -59 33 -65 37 -5 4 -32 20 -60 35 -27 16
-79 45 -115 65 -36 20 -128 72 -205 115 -77 43 -141 80 -143 81 -2 1 4 37 14
80 19 86 27 293 13 352 -4 20 -10 48 -12 62 -3 14 -8 36 -12 50 -6 25 2 30
142 110 81 46 229 129 328 185 99 56 374 212 610 345 237 134 444 250 460 260
17 9 57 32 90 50 33 18 64 36 69 41 8 8 35 -17 36 -32z m2035 -52 c83 -46 177
-99 210 -117 33 -18 139 -76 235 -130 96 -54 202 -112 235 -130 33 -19 152
-85 265 -148 216 -120 243 -135 355 -197 39 -21 96 -53 128 -71 32 -19 61 -34
65 -34 4 0 17 -8 30 -18 l22 -17 -21 -95 c-26 -119 -28 -283 -4 -395 9 -44 17
-85 19 -92 1 -7 5 -16 9 -19 8 -8 -12 -21 -128 -83 -44 -24 -109 -60 -145 -81
-36 -20 -90 -51 -120 -67 -30 -17 -179 -99 -330 -183 -151 -84 -297 -165 -325
-180 -27 -15 -189 -105 -360 -200 -170 -95 -328 -183 -350 -194 -22 -12 -61
-34 -87 -49 l-46 -28 -64 57 c-118 106 -266 190 -400 229 l-58 16 -1 162 c0
89 -1 414 -2 722 -2 307 -1 574 1 593 4 27 19 45 91 104 102 84 299 278 356
350 22 28 45 56 51 62 21 22 142 207 170 260 16 31 34 56 39 56 6 0 78 -38
160 -83z m-4650 -632 c350 -81 530 -459 369 -777 -115 -228 -406 -349 -655
-274 -228 69 -390 279 -392 509 -1 133 22 209 95 318 121 182 363 275 583 224z
m7339 -10 c174 -46 319 -182 377 -352 33 -96 32 -261 -1 -348 -62 -163 -191
-290 -345 -339 -72 -22 -101 -27 -185 -26 -315 0 -561 255 -545 565 4 88 6
100 28 162 57 166 226 309 407 347 78 16 184 12 264 -9z m-3624 -2055 c181
-63 310 -201 356 -380 72 -282 -95 -573 -376 -654 -259 -75 -541 43 -653 274
-80 163 -82 319 -7 476 76 158 216 269 385 304 81 17 215 8 295 -20z"/>
</g>
</svg>
