<?xml version="1.0" standalone="no"?>
<!DOCTYPE svg PUBLIC "-//W3C//DTD SVG 20010904//EN"
 "http://www.w3.org/TR/2001/REC-SVG-20010904/DTD/svg10.dtd">
<svg version="1.0" xmlns="http://www.w3.org/2000/svg"
 width="754.000000pt" height="754.000000pt" viewBox="0 0 754.000000 754.000000"
 preserveAspectRatio="xMidYMid meet">
<metadata>
Created by potrace 1.14, written by Peter Selinger 2001-2017
</metadata>
<g transform="translate(0.000000,754.000000) scale(0.100000,-0.100000)"
fill="#000000" stroke="none">
<path d="M3659 7536 c-2 -2 -22 -6 -44 -9 -57 -8 -137 -26 -160 -36 -11 -5
-51 -21 -90 -36 -109 -44 -276 -159 -347 -240 -55 -63 -75 -88 -106 -135 -50
-76 -106 -193 -127 -265 -9 -33 -20 -73 -25 -90 -42 -144 -23 -409 41 -580 28
-75 95 -203 120 -231 10 -11 19 -23 19 -26 0 -9 59 -75 120 -134 88 -85 175
-142 330 -214 20 -9 130 -42 155 -46 31 -5 78 -14 104 -20 13 -3 61 -5 105 -4
45 1 90 1 101 1 11 0 56 7 100 15 81 15 88 16 115 27 8 3 33 11 55 17 148 45
357 197 460 335 16 22 32 42 35 45 29 26 126 222 136 275 3 19 10 35 16 35 5
0 7 4 4 8 -3 5 -1 24 4 43 24 90 32 286 16 379 -4 25 -9 54 -11 65 -1 11 -8
40 -15 65 -8 25 -14 48 -16 53 -1 4 -3 9 -4 12 -1 3 -3 8 -4 13 -1 4 -14 33
-29 66 -15 32 -27 60 -27 63 0 2 -24 41 -54 86 -148 224 -379 383 -646 444
-59 14 -321 29 -331 19z"/>
<path d="M1428 6176 c-1 -2 -48 -6 -103 -10 -55 -3 -116 -11 -135 -17 -19 -5
-48 -13 -63 -15 -16 -3 -48 -14 -72 -24 -24 -10 -46 -16 -49 -13 -3 4 -6 2 -6
-4 0 -6 -10 -13 -23 -17 -25 -6 -167 -90 -207 -121 -57 -47 -210 -206 -210
-221 0 -3 -13 -25 -30 -49 -16 -24 -30 -48 -30 -54 0 -6 -4 -11 -10 -11 -5 0
-10 -6 -10 -13 0 -7 -9 -32 -20 -56 -20 -41 -58 -154 -66 -196 -2 -11 -8 -42
-13 -70 -19 -100 -1 -341 32 -440 2 -5 7 -23 12 -40 11 -43 106 -235 116 -235
5 0 9 -5 9 -11 0 -16 62 -91 135 -165 90 -90 243 -187 370 -233 58 -22 162
-47 184 -46 11 1 21 -1 21 -4 0 -4 17 -7 38 -8 20 0 57 -2 82 -2 188 -7 355
37 555 143 105 56 163 79 230 91 53 9 118 12 130 6 5 -3 23 -6 40 -6 101 -5
267 -117 315 -212 8 -15 19 -35 25 -43 12 -16 39 -100 50 -158 4 -18 8 -86 10
-150 4 -142 10 -182 42 -292 51 -177 155 -345 290 -470 60 -55 191 -150 208
-150 16 0 153 -112 182 -148 82 -102 118 -215 110 -342 -5 -75 -11 -101 -40
-162 -61 -125 -166 -222 -337 -309 -159 -80 -332 -90 -470 -26 -53 25 -68 37
-129 98 -51 50 -61 64 -92 129 -36 77 -50 141 -54 255 -3 61 -7 135 -10 165
-7 66 -43 221 -56 235 -5 5 -9 16 -9 25 -1 22 -76 166 -107 205 -4 6 -27 35
-50 65 -148 193 -393 336 -648 378 -80 13 -298 6 -372 -11 -95 -22 -205 -63
-273 -100 -284 -155 -474 -417 -534 -737 -14 -76 -15 -301 -1 -350 3 -14 8
-34 9 -45 2 -11 9 -40 16 -65 7 -25 14 -50 16 -56 5 -26 88 -194 95 -194 5 0
9 -5 9 -11 0 -10 57 -98 70 -109 3 -3 31 -33 62 -67 31 -33 59 -59 62 -55 3 3
6 1 6 -5 0 -6 28 -30 63 -54 34 -23 64 -45 67 -48 22 -24 234 -112 305 -125
17 -4 41 -9 55 -12 76 -16 345 -20 345 -4 0 1 9 3 20 4 62 9 99 18 152 37 32
12 67 25 78 29 11 4 24 8 29 8 5 0 12 4 15 9 3 4 31 21 61 37 30 16 69 37 85
46 91 49 253 72 348 50 56 -14 140 -49 145 -62 2 -4 9 -8 15 -8 27 0 155 -146
161 -183 1 -7 7 -21 13 -32 12 -22 41 -129 41 -155 6 -202 18 -334 33 -361 4
-9 11 -31 14 -50 7 -41 71 -194 97 -231 10 -14 18 -31 18 -36 0 -6 4 -12 8
-14 5 -1 22 -23 39 -48 99 -143 251 -259 457 -350 48 -21 59 -24 120 -36 16
-2 33 -7 36 -9 30 -19 307 -28 380 -12 19 4 49 9 65 12 17 3 59 15 95 27 36
12 66 19 66 17 1 -2 10 3 20 12 11 9 30 20 44 24 14 4 49 23 78 41 29 19 55
34 57 34 7 0 72 55 149 128 52 49 147 178 176 239 13 26 26 50 29 53 3 3 7 10
8 15 1 6 16 48 33 96 16 47 32 102 35 122 3 20 8 54 11 75 3 20 7 89 9 152 2
63 6 122 8 130 2 8 7 31 11 50 12 52 51 134 83 177 25 35 38 48 100 104 62 56
203 94 318 86 98 -7 170 -33 318 -115 31 -17 57 -28 57 -24 0 4 4 2 8 -5 12
-19 93 -46 235 -78 91 -21 297 -22 377 -2 14 4 36 9 50 11 75 12 274 97 334
143 13 10 34 25 46 33 52 34 157 140 213 215 62 83 130 208 120 219 -4 3 -1 6
5 6 7 0 12 8 12 18 0 10 4 22 9 27 5 6 19 53 32 105 35 148 33 357 -6 506 -26
99 -113 292 -137 302 -4 2 -8 8 -8 13 0 31 -173 209 -259 268 -194 131 -364
185 -586 184 -153 0 -225 -5 -225 -15 0 -5 -9 -8 -20 -8 -10 0 -41 -7 -67 -16
-26 -9 -52 -17 -58 -18 -27 -5 -152 -70 -217 -113 -93 -61 -223 -189 -275
-270 -9 -15 -20 -30 -23 -33 -20 -16 -118 -236 -125 -280 -1 -3 -5 -23 -10
-45 -4 -22 -10 -47 -11 -55 -5 -23 -14 -125 -19 -230 -7 -139 -13 -166 -61
-266 -35 -71 -131 -170 -196 -202 -26 -13 -51 -24 -55 -24 -4 -1 -28 -7 -52
-15 -52 -15 -157 -17 -221 -3 -164 37 -378 174 -458 294 -167 249 -84 546 201
719 43 26 82 47 87 47 6 0 10 4 10 10 0 5 14 17 31 26 44 22 189 171 236 240
53 80 95 154 87 154 -3 0 -2 6 4 13 28 34 89 252 91 327 4 175 12 255 31 320
8 25 14 47 15 50 5 21 51 100 57 100 4 0 8 6 8 13 0 21 108 114 164 141 111
53 233 62 363 27 35 -10 176 -77 233 -111 46 -28 211 -84 293 -99 4 0 8 -1 10
-2 19 -7 189 -10 252 -5 127 11 264 50 381 111 289 148 490 421 550 745 2 14
7 71 10 127 13 210 -42 418 -156 600 -53 83 -62 94 -150 184 -138 140 -351
252 -540 283 -19 3 -46 8 -60 11 -31 6 -202 6 -250 0 -38 -5 -143 -27 -167
-35 -5 -1 -12 -3 -18 -4 -5 -1 -23 -8 -40 -15 -16 -7 -34 -14 -40 -15 -21 -5
-160 -79 -163 -87 -2 -5 -10 -9 -18 -9 -8 0 -14 -4 -14 -10 0 -5 -6 -10 -14
-10 -15 0 -192 -170 -239 -230 -31 -41 -149 -271 -142 -278 3 -3 0 -11 -6 -19
-6 -7 -8 -13 -4 -13 4 0 2 -7 -5 -15 -7 -8 -10 -15 -7 -15 3 0 1 -15 -4 -32
-17 -57 -24 -122 -33 -303 -6 -111 -10 -133 -43 -215 -45 -112 -125 -199 -228
-249 -67 -32 -95 -40 -177 -46 -62 -5 -193 15 -222 33 -6 3 -17 7 -23 8 -7 1
-49 23 -92 48 -129 74 -281 128 -404 143 -110 14 -294 5 -372 -17 -109 -31
-299 -109 -315 -130 -5 -6 -76 -41 -95 -47 -153 -45 -248 -50 -346 -18 -89 29
-126 53 -196 125 -89 91 -131 209 -138 385 -6 141 -13 210 -27 260 -5 22 -11
45 -13 50 -9 43 -19 72 -28 83 -5 6 -6 12 -2 12 4 0 3 6 -3 13 -6 6 -11 15
-11 20 -1 16 -76 157 -83 157 -4 0 -8 5 -8 11 0 25 -109 150 -200 230 -41 36
-172 119 -220 140 -25 11 -54 24 -65 29 -70 30 -184 57 -278 66 -29 2 -57 6
-64 9 -6 2 -13 2 -15 1z"/>
</g>
</svg>
