<?xml version="1.0" standalone="no"?>
<!DOCTYPE svg PUBLIC "-//W3C//DTD SVG 20010904//EN"
 "http://www.w3.org/TR/2001/REC-SVG-20010904/DTD/svg10.dtd">
<svg version="1.0" xmlns="http://www.w3.org/2000/svg"
 width="700.000000pt" height="700.000000pt" viewBox="0 0 700.000000 700.000000"
 preserveAspectRatio="xMidYMid meet">
<metadata>
Created by potrace 1.11, written by Peter Selinger 2001-2013
</metadata>
<g transform="translate(0.000000,700.000000) scale(0.100000,-0.100000)"
fill="#000000" stroke="none">
<path d="M3348 6810 c-201 -45 -375 -182 -463 -365 -64 -133 -79 -264 -48
-417 10 -51 12 -83 6 -85 -5 -2 -221 -121 -479 -264 -258 -143 -500 -278 -539
-298 -38 -21 -98 -55 -132 -75 -34 -20 -64 -36 -67 -36 -2 0 -20 14 -38 31
-268 249 -693 245 -948 -11 -101 -101 -170 -232 -188 -360 -46 -316 137 -612
445 -723 l68 -25 0 -682 c0 -375 -2 -685 -5 -689 -3 -4 -25 -13 -50 -20 -156
-46 -309 -175 -388 -328 -81 -157 -97 -337 -45 -491 92 -274 345 -459 633
-464 66 -1 99 3 209 26 49 11 188 87 240 133 l53 47 47 -26 c25 -14 224 -125
441 -248 217 -123 416 -235 441 -249 287 -159 311 -174 304 -201 -3 -14 -8
-70 -12 -126 -8 -144 9 -215 93 -374 25 -48 160 -181 217 -215 63 -36 175 -82
224 -90 210 -37 435 24 592 163 77 68 164 197 186 277 4 17 9 35 11 40 21 79
25 207 9 306 -7 44 -6 47 16 54 13 4 35 15 49 25 14 9 59 35 100 57 41 22 299
165 572 317 l498 277 55 -46 c195 -158 459 -193 700 -93 105 43 218 136 284
232 200 290 135 676 -149 890 -63 48 -134 84 -205 106 l-50 16 0 669 c0 369 2
680 3 691 3 15 16 25 45 34 124 37 247 124 332 235 150 198 173 453 60 680
-139 280 -465 427 -772 346 -99 -25 -198 -76 -269 -137 -29 -24 -55 -44 -57
-44 -5 0 -313 173 -757 425 -80 45 -208 117 -285 160 -209 117 -195 103 -179
172 8 34 12 99 11 158 -5 171 -66 304 -198 435 -99 98 -205 154 -350 186 -60
13 -198 10 -271 -6z m300 -325 c197 -89 267 -339 143 -518 -102 -148 -295
-194 -468 -112 -50 24 -125 101 -151 157 -96 198 7 427 223 494 68 21 181 12
253 -21z m477 -855 c6 -4 33 -20 60 -35 28 -15 115 -64 195 -109 80 -45 303
-172 497 -281 314 -177 351 -200 342 -217 -5 -10 -7 -18 -5 -18 3 0 1 -12 -4
-26 -11 -29 -14 -171 -5 -219 3 -16 11 -47 16 -69 6 -21 9 -39 7 -41 -2 -2
-34 -21 -73 -43 -237 -133 -448 -252 -559 -316 -54 -31 -99 -56 -101 -56 -1 0
-73 -40 -159 -90 -87 -49 -160 -90 -163 -90 -3 0 -18 -9 -34 -20 l-28 -21 -47
73 c-88 137 -199 263 -340 385 l-60 53 -3 387 c-2 214 -4 446 -4 517 l-2 129
60 22 c96 34 168 77 239 139 l29 26 66 -37 c36 -20 71 -39 76 -43z m-1045 19
c62 -47 178 -106 227 -115 l33 -6 1 -92 c0 -50 2 -185 4 -301 2 -115 4 -308 6
-427 l2 -218 -29 -22 c-33 -26 -183 -166 -200 -188 -7 -8 -26 -31 -44 -50 -39
-43 -132 -174 -154 -218 l-17 -33 -62 34 c-134 74 -1081 598 -1084 601 -2 1 2
18 7 37 24 80 29 210 12 300 l-9 47 231 128 c127 71 246 137 265 147 19 11 91
51 160 90 69 38 149 82 176 97 28 15 103 57 168 94 65 36 120 66 122 66 2 0
30 16 62 35 32 19 60 35 63 35 3 0 30 -19 60 -41z m-1847 -486 c95 -33 169
-99 213 -191 24 -48 28 -70 28 -142 0 -71 -5 -95 -28 -146 -70 -154 -244 -239
-410 -199 -107 25 -195 95 -243 193 -38 79 -42 193 -8 276 13 33 37 75 53 95
37 46 113 98 171 116 56 17 170 17 224 -2z m4766 -7 c199 -73 288 -302 191
-492 -125 -245 -477 -258 -626 -23 -80 127 -59 319 47 427 95 97 261 134 388
88z m-4071 -988 c180 -99 356 -197 392 -216 36 -20 79 -43 95 -53 17 -10 55
-31 85 -48 30 -16 107 -58 170 -93 l115 -64 -3 -45 c-6 -87 -7 -285 -2 -329
l5 -44 -175 -99 c-96 -54 -193 -109 -215 -121 -348 -197 -508 -287 -545 -308
-25 -14 -69 -39 -98 -57 -29 -17 -56 -31 -60 -31 -4 0 -18 -9 -32 -20 -33 -26
-41 -25 -76 6 -71 63 -183 126 -269 152 l-30 9 0 689 0 689 55 20 c73 27 167
78 209 115 18 17 38 30 43 30 5 0 157 -82 336 -182z m3502 159 c44 -41 157
-103 227 -126 l68 -22 -2 -117 c-2 -64 -4 -373 -5 -687 l-3 -570 -45 -16 c-86
-30 -136 -57 -203 -108 -38 -28 -70 -51 -73 -51 -3 0 -173 93 -377 207 -205
113 -392 218 -417 231 -25 14 -76 42 -113 63 -38 22 -70 39 -71 39 -2 0 -45
24 -97 54 -89 51 -94 56 -89 83 6 37 6 264 0 332 l-5 53 380 215 c209 118 470
266 580 328 110 63 205 115 210 115 6 0 22 -10 35 -23z m-1849 -194 c36 -38
86 -95 113 -128 26 -33 53 -67 60 -76 29 -36 90 -148 118 -219 61 -152 68
-281 22 -439 -15 -54 -72 -182 -84 -191 -4 -3 -9 -12 -12 -20 -3 -8 -32 -49
-64 -90 l-59 -75 -5 267 c-5 251 -6 268 -26 295 -76 103 -210 97 -270 -11 -20
-36 -22 -53 -22 -225 0 -102 -1 -221 -1 -264 l-1 -78 -45 56 c-172 211 -244
436 -205 645 30 163 153 370 330 552 36 37 70 67 76 68 6 0 40 -30 75 -67z
m-636 -1245 c92 -144 188 -252 330 -371 33 -27 63 -55 66 -61 3 -6 5 -229 5
-496 l-1 -484 -68 -23 c-79 -28 -152 -69 -222 -128 l-50 -42 -440 248 c-242
137 -489 277 -550 311 -60 35 -131 74 -156 88 -88 48 -90 50 -79 92 21 73 18
234 -4 306 -7 21 -9 19 134 100 25 14 146 82 270 152 124 70 246 139 273 153
61 35 101 58 282 161 83 47 151 85 151 86 1 0 28 -41 59 -92z m1315 17 c41
-23 98 -55 125 -70 28 -15 88 -49 135 -75 79 -44 113 -63 230 -128 474 -262
480 -266 480 -286 0 -12 -5 -37 -10 -56 -15 -51 -13 -207 3 -267 13 -47 13
-53 -2 -66 -9 -7 -92 -55 -186 -107 -93 -51 -183 -101 -200 -110 -16 -9 -199
-110 -405 -225 -206 -114 -387 -214 -401 -223 -26 -14 -28 -14 -69 24 -70 65
-169 122 -248 143 -23 7 -43 15 -43 19 -4 22 -5 959 -2 972 3 8 25 30 49 49
127 96 281 270 365 411 l41 69 31 -16 c18 -9 66 -35 107 -58z m-2997 -413
c230 -102 290 -393 117 -571 -105 -108 -288 -138 -423 -70 -66 34 -132 103
-162 170 -85 189 10 409 206 478 73 26 195 23 262 -7z m4734 7 c88 -28 167
-99 211 -188 23 -49 27 -68 27 -147 0 -83 -3 -95 -34 -158 -62 -121 -167 -186
-308 -192 -203 -8 -361 138 -369 341 -7 209 164 370 383 359 29 -1 69 -8 90
-15z m-2405 -1324 c191 -42 312 -251 255 -443 -29 -97 -92 -169 -192 -217 -49
-24 -73 -30 -143 -31 -88 -2 -135 10 -202 52 -129 80 -194 238 -155 382 51
194 233 301 437 257z"/>
</g>
</svg>
