<?xml version="1.0" standalone="no"?>
<!DOCTYPE svg PUBLIC "-//W3C//DTD SVG 20010904//EN"
 "http://www.w3.org/TR/2001/REC-SVG-20010904/DTD/svg10.dtd">
<svg version="1.0" xmlns="http://www.w3.org/2000/svg"
 width="700.000000pt" height="700.000000pt" viewBox="0 0 700.000000 700.000000"
 preserveAspectRatio="xMidYMid meet">
<metadata>
Created by potrace 1.11, written by Peter Selinger 2001-2013
</metadata>
<g transform="translate(0.000000,700.000000) scale(0.100000,-0.100000)"
fill="#000000" stroke="none">
<path d="M3330 6773 c-96 -74 -311 -290 -410 -413 -25 -30 -47 -57 -51 -60 -3
-3 -38 -52 -77 -110 -77 -115 -140 -229 -170 -306 -10 -27 -23 -58 -27 -69
-10 -24 -8 -19 -24 -74 -38 -134 -54 -325 -38 -466 26 -232 142 -469 342 -701
80 -92 289 -286 387 -358 24 -17 25 -23 24 -102 l-1 -84 -50 -24 c-139 -66
-228 -217 -219 -377 l4 -65 -37 -21 c-21 -11 -164 -93 -317 -182 l-279 -162
-26 18 c-141 103 -338 102 -473 -1 -233 -178 -194 -547 69 -666 l52 -23 0
-363 -1 -362 -64 -33 c-241 -122 -283 -458 -79 -637 137 -121 345 -130 494
-22 l41 30 41 -26 c23 -14 60 -36 82 -49 23 -13 143 -82 267 -153 l225 -130 2
-76 c4 -174 78 -297 218 -366 267 -131 568 60 562 358 l-2 79 170 98 c94 55
234 136 313 181 l144 83 44 -34 c105 -81 280 -94 404 -30 164 84 246 266 201
446 -29 116 -109 213 -213 259 l-46 20 0 364 0 363 47 22 c143 64 231 209 226
372 l-2 76 64 38 64 37 92 -30 c129 -43 213 -56 326 -49 252 14 419 149 543
440 40 95 90 291 82 325 -11 45 -43 89 -77 105 -42 20 -170 55 -227 63 -25 3
-63 9 -85 13 -51 8 -185 7 -250 -3 -153 -23 -294 -112 -381 -240 -59 -86 -125
-272 -136 -381 -3 -25 -14 -36 -75 -73 l-71 -43 -48 30 c-141 90 -314 88 -442
-6 l-33 -25 -222 128 c-122 70 -265 153 -317 183 l-95 57 2 73 c3 161 -78 297
-222 371 l-49 25 -1 80 c0 59 4 82 15 91 377 296 612 594 699 886 37 124 45
175 45 303 1 146 -5 201 -29 295 -32 125 -47 164 -116 304 -34 67 -170 281
-188 296 -4 3 -34 39 -68 80 -92 114 -344 366 -413 413 -38 26 -99 22 -140
-10z m219 -397 c36 -38 75 -78 86 -90 39 -40 132 -162 182 -236 152 -227 227
-442 223 -635 -1 -33 -2 -67 -2 -75 0 -8 -4 -31 -9 -50 -4 -19 -10 -49 -13
-65 -18 -102 -105 -279 -203 -408 -35 -48 -113 -134 -171 -193 l-107 -106 -5
443 c-5 402 -7 446 -23 470 -48 71 -158 69 -199 -3 -10 -18 -14 -131 -18 -467
l-5 -443 -96 93 c-368 358 -488 713 -367 1084 76 235 214 444 460 699 l122
126 39 -37 c22 -21 69 -69 106 -107z m-35 -2580 c97 -73 93 -217 -7 -288 -38
-28 -136 -34 -178 -13 -85 44 -120 156 -76 240 35 68 86 96 169 92 43 -2 64
-10 92 -31z m2386 -107 c96 -15 97 -16 75 -86 -72 -234 -204 -362 -375 -365
-123 -2 -123 -2 -44 43 54 31 73 49 82 73 32 89 -13 156 -104 156 -23 0 -54
-12 -91 -36 -30 -19 -57 -33 -60 -31 -9 9 45 103 86 149 89 100 223 131 431
97z m-2720 -352 c19 -13 50 -29 68 -36 17 -8 33 -16 34 -20 0 -3 2 -169 3
-368 l2 -362 -29 -12 c-16 -6 -47 -25 -70 -41 -49 -36 -24 -45 -292 109 -110
64 -221 127 -244 140 -24 14 -65 37 -90 52 l-45 26 -3 86 -2 85 312 181 c171
100 313 182 316 182 3 1 21 -9 40 -22z m588 -33 c53 -30 104 -60 112 -65 8 -5
89 -51 180 -104 245 -140 252 -144 245 -155 -3 -5 -6 -43 -6 -82 l0 -73 -311
-179 c-284 -163 -313 -177 -332 -165 -12 7 -45 26 -73 42 l-53 29 0 368 0 368
23 6 c13 3 43 19 68 36 24 16 45 30 47 30 2 0 47 -25 100 -56z m-1556 -242
c51 -21 98 -108 92 -174 -13 -145 -206 -209 -305 -101 -96 105 -39 268 101
293 35 6 60 2 112 -18z m2555 -1 c60 -28 98 -89 97 -155 -1 -62 -22 -106 -71
-143 -31 -24 -46 -28 -103 -28 -58 0 -71 4 -104 29 -133 101 -63 316 104 316
19 0 54 -9 77 -19z m-299 -475 c26 -19 60 -40 75 -45 l27 -11 0 -365 0 -366
-37 -15 c-21 -9 -52 -27 -70 -40 l-32 -24 -243 141 c-134 78 -277 161 -319
185 l-76 43 7 48 c3 26 3 64 -1 85 -5 34 -3 38 30 56 75 42 112 63 346 200
132 77 241 141 242 141 2 1 25 -15 51 -33z m-1752 -155 l300 -174 0 -86 0 -86
-315 -182 c-295 -171 -317 -182 -336 -168 -11 9 -40 25 -65 38 -25 12 -47 25
-50 29 -4 5 -5 629 -1 714 1 14 9 24 24 28 13 3 43 19 68 36 24 16 51 29 59
28 9 -2 151 -81 316 -177z m768 -101 c127 -62 130 -247 6 -310 -172 -88 -343
123 -217 267 56 64 135 80 211 43z m-306 -473 c17 -13 50 -32 72 -42 l40 -18
0 -368 0 -367 -37 -13 c-21 -7 -52 -23 -69 -36 -17 -12 -34 -23 -39 -23 -6 0
-135 72 -210 117 -11 7 -26 15 -34 19 -7 4 -97 55 -199 114 l-185 108 -3 84
-2 84 312 181 c171 100 314 182 317 182 3 1 19 -10 37 -22z m768 -134 c151
-87 294 -169 318 -182 25 -14 43 -28 40 -33 -3 -4 -5 -43 -5 -86 l0 -78 -77
-42 c-42 -24 -91 -51 -107 -61 -17 -10 -122 -71 -234 -136 -202 -117 -205
-118 -230 -101 -14 9 -47 26 -73 38 l-48 22 0 368 0 368 36 15 c19 8 50 26 67
40 18 13 34 25 36 25 2 0 127 -71 277 -157z m-1738 -142 c85 -44 120 -148 76
-233 -32 -64 -88 -98 -159 -98 -146 0 -226 172 -133 284 17 21 45 44 62 52 44
19 111 17 154 -5z m2562 -1 c93 -47 123 -168 63 -254 -72 -101 -208 -102 -287
-3 -27 34 -31 47 -31 102 0 55 4 68 31 102 58 72 145 93 224 53z m-1296 -724
c119 -50 148 -196 57 -287 -119 -119 -321 -20 -297 145 9 59 41 104 95 133 50
26 97 29 145 9z"/>
</g>
</svg>
