<!-- Generated by IcoMoon.io -->
<svg version="1.1" xmlns="http://www.w3.org/2000/svg" width="24" height="24" viewBox="0 0 24 24">
<title>equalizerv</title>
<path d="M21 10.5h0.375c0.619 0 1.125-0.506 1.125-1.125v-3.75c0-0.619-0.506-1.125-1.125-1.125h-0.375v-4.5h-3v4.5h-0.375c-0.619 0-1.125 0.506-1.125 1.125v3.75c0 0.619 0.506 1.125 1.125 1.125h0.375v13.5h3v-13.5zM18 6h3v3h-3v-3zM13.875 19.5c0.619 0 1.125-0.506 1.125-1.125v-3.75c0-0.619-0.506-1.125-1.125-1.125h-0.375v-13.5h-3v13.5h-0.375c-0.619 0-1.125 0.506-1.125 1.125v3.75c0 0.619 0.506 1.125 1.125 1.125h0.375v4.5h3v-4.5h0.375zM10.5 15h3v3h-3v-3zM6.375 10.5c0.619 0 1.125-0.506 1.125-1.125v-3.75c0-0.619-0.506-1.125-1.125-1.125h-0.375v-4.5h-3v4.5h-0.375c-0.619 0-1.125 0.506-1.125 1.125v3.75c0 0.619 0.506 1.125 1.125 1.125h0.375v13.5h3v-13.5h0.375zM3 6h3v3h-3v-3z"></path>
</svg>
