<!-- Generated by IcoMoon.io -->
<svg version="1.1" xmlns="http://www.w3.org/2000/svg" width="32" height="32" viewBox="0 0 32 32">
<title>floppy</title>
<path d="M30 32h-28c-1.104 0-2-0.896-2-2v-28c0-1.104 0.896-2 2-2h24l6 6v24c0 1.104-0.896 2-2 2zM8 27c0 0.553 0.448 1 1 1h14c0.553 0 1-0.447 1-1v-8c0-0.553-0.447-1-1-1h-14c-0.552 0-1 0.447-1 1v8zM22 5c0-0.553-0.447-1-1-1s-1 0.447-1 1v3c0 0.553 0.447 1 1 1s1-0.447 1-1v-3zM28 7l-3-3h-1v7c0 0.553-0.447 1-1 1h-14c-0.552 0-1-0.447-1-1v-7h-3c-0.552 0-1 0.447-1 1v22c0 0.553 0.448 1 1 1h1v-11c0-0.553 0.448-1 1-1h18c0.553 0 1 0.447 1 1v11h1c0.553 0 1-0.447 1-1v-20z"></path>
</svg>
