<?xml version="1.0" encoding="UTF-8" standalone="no"?>
<!-- Generated by IcoMoon.io -->

<svg
   xmlns:dc="http://purl.org/dc/elements/1.1/"
   xmlns:cc="http://creativecommons.org/ns#"
   xmlns:rdf="http://www.w3.org/1999/02/22-rdf-syntax-ns#"
   xmlns:svg="http://www.w3.org/2000/svg"
   xmlns="http://www.w3.org/2000/svg"
   xmlns:sodipodi="http://sodipodi.sourceforge.net/DTD/sodipodi-0.dtd"
   xmlns:inkscape="http://www.inkscape.org/namespaces/inkscape"
   version="1.1"
   width="32"
   height="32"
   viewBox="0 0 32 32"
   id="svg4397"
   sodipodi:docname="pin.svg"
   inkscape:version="0.92.1 unknown">
  <metadata
     id="metadata4403">
    <rdf:RDF>
      <cc:Work
         rdf:about="">
        <dc:format>image/svg+xml</dc:format>
        <dc:type
           rdf:resource="http://purl.org/dc/dcmitype/StillImage" />
      </cc:Work>
    </rdf:RDF>
  </metadata>
  <defs
     id="defs4401" />
  <sodipodi:namedview
     pagecolor="#ffffff"
     bordercolor="#666666"
     borderopacity="1"
     objecttolerance="10"
     gridtolerance="10"
     guidetolerance="10"
     inkscape:pageopacity="0"
     inkscape:pageshadow="2"
     inkscape:window-width="3840"
     inkscape:window-height="2118"
     id="namedview4399"
     showgrid="false"
     inkscape:zoom="12.900624"
     inkscape:cx="-20.873088"
     inkscape:cy="-11.653055"
     inkscape:window-x="0"
     inkscape:window-y="42"
     inkscape:window-maximized="1"
     inkscape:current-layer="svg4397" />
  <title
     id="title4393">pin</title>
  <path
     d="m 21.105612,2.0201322 c -0.991,-0.914 -2.244,-1.15700003 -2.81,-0.544 -0.425001,0.461 -0.336001,1.269 0.154,2.03 l -9.2670007,10.0459998 -0.832,-0.767 c -0.991,-0.914 -2.279,-1.119 -2.887,-0.46 -0.608,0.659 -0.3,1.926 0.691,2.841 l 4.2659997,3.935 -5.6049997,6.076 -2.886,5.685 5.33,-3.431 5.6049997,-6.076 4.266,3.935 c 0.991001,0.914 2.279001,1.119 2.887001,0.46 0.608,-0.659 0.3,-1.926 -0.691,-2.84 l -0.832,-0.767 9.267,-10.046 c 0.798,0.427 1.611,0.45 2.036,-0.01 0.566,-0.613 0.223,-1.843 -0.768,-2.7569998 z"
     id="pin"
     inkscape:connector-curvature="0" />
</svg>
