<!-- Generated by IcoMoon.io -->
<svg version="1.1" xmlns="http://www.w3.org/2000/svg" width="18" height="24" viewBox="0 0 18 24">
<title>repo-forked</title>
<path d="M16.876 4.124c0-1.456-1.169-2.625-2.625-2.625s-2.625 1.169-2.625 2.625c0 0.964 0.533 1.825 1.313 2.277v2.174l-3.938 4.348-3.938-4.348v-2.174c0.779-0.451 1.313-1.292 1.313-2.277 0-1.456-1.169-2.625-2.625-2.625s-2.625 1.169-2.625 2.625c0 0.964 0.533 1.825 1.313 2.277v3.2l5.251 5.784v2.236c-0.779 0.451-1.313 1.292-1.313 2.277 0 1.456 1.169 2.625 2.625 2.625s2.625-1.169 2.625-2.625c0-0.964-0.533-1.825-1.313-2.277v-2.236l5.251-5.784v-3.2c0.779-0.451 1.313-1.292 1.313-2.277zM3.749 2.832c0.697 0 1.272 0.574 1.272 1.272s-0.574 1.272-1.272 1.272-1.272-0.574-1.272-1.272 0.574-1.272 1.272-1.272zM9 21.107c-0.697 0-1.272-0.574-1.272-1.272s0.574-1.272 1.272-1.272 1.272 0.574 1.272 1.272-0.574 1.272-1.272 1.272zM14.251 2.832c0.697 0 1.272 0.574 1.272 1.272s-0.574 1.272-1.272 1.272-1.272-0.574-1.272-1.272 0.574-1.272 1.272-1.272z"></path>
</svg>
