<!-- Generated by IcoMoon.io -->
<svg version="1.1" xmlns="http://www.w3.org/2000/svg" width="1024" height="1024" viewBox="0 0 1024 1024">
<title></title>
<g id="icomoon-ignore">
</g>
<path fill="#000" d="M907.5 755.1l-345.1-558.4c-27.8-44.9-73-45-100.8 0v0l-345.1 558.4c-37.3 60.3-10.2 108.9 60.4 108.9h670.2c70.5 0 97.6-48.7 60.4-108.9zM512 768c-17.7 0-32-14.3-32-32s14.3-32 32-32 32 14.3 32 32-14.3 32-32 32zM544 608.1c0 17.4-14.3 31.9-32 31.9-17.8 0-32-14.3-32-31.9v-192.2c0-17.4 14.3-31.9 32-31.9v0c17.8 0 32 14.3 32 31.9v192.2z"></path>
</svg>
