<svg version="1.1" xmlns="http://www.w3.org/2000/svg" width="24" height="24" viewBox="0 0 24 24">
<title>camera</title>
<path d="M12 17.016c2.766 0 5.016-2.25 5.016-5.016s-2.25-5.016-5.016-5.016-5.016 2.25-5.016 5.016 2.25 5.016 5.016 5.016zM9 2.016h6l1.828 1.969h3.188c1.078 0 1.969 0.938 1.969 2.016v12c0 1.078-0.891 2.016-1.969 2.016h-16.031c-1.078 0-1.969-0.938-1.969-2.016v-12c0-1.078 0.891-2.016 1.969-2.016h3.188zM8.813 12c0-1.781 1.406-3.188 3.188-3.188s3.188 1.406 3.188 3.188-1.406 3.188-3.188 3.188-3.188-1.406-3.188-3.188z"></path>
</svg>
