<!-- Generated by IcoMoon.io -->
<svg version="1.1" xmlns="http://www.w3.org/2000/svg" width="29" height="24" viewBox="0 0 29 24">
<title>cubes</title>
<path d="M8.571 21.857l5.143-2.571v-4.205l-5.143 2.196v4.58zM7.714 15.777l5.411-2.317-5.411-2.317-5.411 2.317zM22.286 21.857l5.143-2.571v-4.205l-5.143 2.196v4.58zM21.429 15.777l5.411-2.317-5.411-2.317-5.411 2.317zM15.429 11.853l5.143-2.21v-3.563l-5.143 2.196v3.576zM14.571 6.777l5.906-2.531-5.906-2.531-5.906 2.531zM29.143 13.714v5.571c0 0.643-0.362 1.246-0.951 1.527l-6 3c-0.241 0.134-0.496 0.188-0.763 0.188s-0.522-0.054-0.763-0.188l-6-3c-0.040-0.013-0.067-0.027-0.094-0.054-0.027 0.027-0.054 0.040-0.094 0.054l-6 3c-0.241 0.134-0.496 0.188-0.763 0.188s-0.522-0.054-0.763-0.188l-6-3c-0.589-0.281-0.951-0.884-0.951-1.527v-5.571c0-0.683 0.415-1.299 1.045-1.58l5.813-2.491v-5.357c0-0.683 0.415-1.299 1.045-1.58l6-2.571c0.214-0.094 0.442-0.134 0.67-0.134s0.455 0.040 0.67 0.134l6 2.571c0.629 0.281 1.045 0.897 1.045 1.58v5.357l5.813 2.491c0.643 0.281 1.045 0.897 1.045 1.58z"></path>
</svg>
