<!-- Generated by IcoMoon.io -->
<svg version="1.1" xmlns="http://www.w3.org/2000/svg" width="18" height="24" viewBox="0 0 18 24">
<title>git-merge</title>
<path d="M14.429 10.643c-1.010 0-1.879 0.558-2.346 1.376-0.122-0.009-0.241-0.019-0.368-0.019-2.779 0-5.417-2.117-6.379-4.738 0.579-0.498 0.95-1.227 0.95-2.048 0-1.498-1.216-2.714-2.714-2.714s-2.714 1.216-2.714 2.714c0 1.001 0.548 1.867 1.357 2.339v8.895c-0.809 0.47-1.357 1.336-1.357 2.338 0 1.498 1.216 2.714 2.714 2.714s2.714-1.217 2.714-2.714c0-1.002-0.548-1.867-1.357-2.338v-4.883c1.785 1.888 4.249 3.15 6.786 3.15 0.135 0 0.246-0.009 0.368-0.013 0.469 0.815 1.339 1.37 2.346 1.37 1.498 0 2.714-1.217 2.714-2.714s-1.217-2.714-2.714-2.714zM3.571 20.143c-0.749 0-1.357-0.607-1.357-1.357 0-0.749 0.608-1.357 1.357-1.357 0.751 0 1.357 0.608 1.357 1.357 0 0.75-0.606 1.357-1.357 1.357zM3.571 6.571c-0.749 0-1.357-0.606-1.357-1.357s0.608-1.357 1.357-1.357c0.751 0 1.357 0.606 1.357 1.357s-0.606 1.357-1.357 1.357zM14.429 14.714c-0.749 0-1.357-0.607-1.357-1.357s0.608-1.357 1.357-1.357c0.75 0 1.357 0.606 1.357 1.357s-0.607 1.357-1.357 1.357z"></path>
</svg>
