<!-- Generated by IcoMoon.io -->
<svg version="1.1" xmlns="http://www.w3.org/2000/svg" width="32" height="32" viewBox="0 0 32 32">
<title>mac</title>
<path d="M25.385 17.004c0.047 4.841 4.559 6.449 4.611 6.473-0.041 0.109-0.723 2.295-2.381 4.552-1.434 1.949-2.918 3.89-5.26 3.929-2.303 0.041-3.043-1.271-5.676-1.271-2.632 0-3.454 1.232-5.632 1.312-2.259 0.080-3.981-2.104-5.427-4.048-2.954-3.974-5.21-11.229-2.178-16.125 1.503-2.432 4.192-3.972 7.112-4.013 2.22-0.037 4.317 1.394 5.672 1.394 1.359 0 3.906-1.719 6.582-1.467 1.121 0.043 4.268 0.42 6.287 3.169-0.159 0.097-3.755 2.041-3.71 6.095zM15.956 7.375c-0.261-1.839 0.712-3.751 1.824-4.952 1.241-1.353 3.335-2.359 5.064-2.423 0.221 1.874-0.59 3.755-1.789 5.109-1.201 1.352-3.17 2.405-5.099 2.266z"></path>
</svg>
