<!-- Generated by IcoMoon.io -->
<svg version="1.1" xmlns="http://www.w3.org/2000/svg" width="24" height="32" viewBox="0 0 24 32">
<title>microscope</title>
<path d="M19.281 28c2.697-0.586 4.719-3.125 4.719-6 0-1.826-0.832-3.441-2.121-4.543 0.074-0.477 0.121-0.961 0.121-1.457 0-3.276-1.559-6.184-4-8l2-2v-2l2-2-2-2-2 2h-2l-8 8-4 2v4l2 2h4l2-4 3-3c1.734 1.044 3 2.826 3 5-3.314 0-6 2.686-6 6h-12v2h6c0.598 0.445 1.314 0.691 2 1v3h-4l-4 4h24l-4-4h-0.719zM16 22c0-1.105 0.895-2 2-2s2 0.895 2 2c0 1.104-0.895 2-2 2s-2-0.896-2-2z"></path>
</svg>
