<!-- Generated by IcoMoon.io -->
<svg version="1.1" xmlns="http://www.w3.org/2000/svg" width="32" height="32" viewBox="0 0 32 32">
<title>plug</title>
<path d="M31.356 6.396l-0.028-0.028c-0.773-0.773-2.027-0.773-2.8 0l-1.428 1.428-2.828-2.828 1.428-1.428c0.773-0.773 0.773-2.027 0-2.8l-0.028-0.028c-0.773-0.773-2.027-0.773-2.8 0l-1.499 1.499c-1.941-1.286-4.583-1.074-6.293 0.636l-0.778 0.778c-3.407 3.407-3.811 8.678-1.214 12.528l-0.129 0.129c-1.95 1.95-1.953 5.109-0.009 7.062 0.388 0.39 0.395 1.041 0.004 1.428s-1.020 0.384-1.409-0.005l-2.795-2.795c-1.957-1.957-5.145-1.992-7.103-0.036-1.954 1.952-1.955 5.12-0.002 7.073l0.274 0.274c0.773 0.773 2.027 0.773 2.8 0l0.028-0.028c0.773-0.773 0.773-2.027 0-2.8l-0.259-0.259c-0.385-0.385-0.409-1.013-0.034-1.409 0.389-0.411 1.037-0.417 1.434-0.020l2.792 2.791c1.966 1.966 5.172 1.994 7.128 0.017 1.931-1.952 1.927-5.099-0.013-7.045-0.392-0.393-0.399-1.027-0.006-1.42l0.13-0.13c3.85 2.597 9.121 2.192 12.528-1.214l0.778-0.778c1.71-1.71 1.922-4.352 0.636-6.293l1.499-1.499c0.773-0.773 0.773-2.027 0-2.8zM27.806 15.574c-1.172 1.172-3.071 1.172-4.243 0l-7.071-7.071c-1.172-1.172-1.172-3.071 0-4.243 0.924-0.924 2.3-1.119 3.415-0.586l-1.307 1.307c-0.773 0.773-0.773 2.027 0 2.8l0.028 0.028c0.773 0.773 2.027 0.773 2.8 0l1.428-1.428 2.828 2.828-1.428 1.428c-0.773 0.773-0.773 2.027 0 2.8l0.028 0.028c0.773 0.773 2.027 0.773 2.8 0l1.307-1.307c0.533 1.115 0.337 2.491-0.586 3.415z"></path>
</svg>
