<!-- Generated by IcoMoon.io -->
<svg version="1.1" xmlns="http://www.w3.org/2000/svg" width="24" height="32" viewBox="0 0 24 32">
<title>server</title>
<path d="M22 12h-20c-1.094 0-2 1-2 2v4c0 1 1 2 2 2h20c1 0 2-1 2-2v-4c0-1-1-2-2-2zM4 18h-2v-4h2v4zM8 18h-2v-4h2v4zM12 18h-2v-4h2v4zM16 18h-2v-4h2v4zM22 22h-20c-1.094 0-2 1-2 2v4c0 1 1 2 2 2h20c1 0 2-1 2-2v-4c0-1-1-2-2-2zM4 28h-2v-4h2v4zM8 28h-2v-4h2v4zM12 28h-2v-4h2v4zM16 28h-2v-4h2v4zM22 2h-20c-1.094 0-2 1-2 2v4c0 1 1 2 2 2h20c1 0 2-1 2-2v-4c0-1-1-2-2-2zM4 8h-2v-4h2v4zM8 8h-2v-4h2v4zM12 8h-2v-4h2v4zM16 8h-2v-4h2v4zM22 6h-2v-2h2v2z"></path>
</svg>
