<!-- Generated by IcoMoon.io -->
<svg version="1.1" xmlns="http://www.w3.org/2000/svg" width="32" height="32" viewBox="0 0 32 32">
<title>download</title>
<path d="M26 10c-0.273 0-0.535 0.044-0.801 0.080-1.523-3.572-5.070-6.080-9.199-6.080s-7.674 2.508-9.2 6.080c-0.264-0.036-0.525-0.080-0.8-0.080-3.314 0-6 2.686-6 6s2.686 6 6 6c0.642 0 1.246-0.133 1.824-0.324 1.065 1.18 2.529 1.973 4.176 2.215v-2.039c-1.558-0.324-2.862-1.338-3.52-2.746-0.683 0.551-1.536 0.895-2.48 0.895-2.208 0-4-1.793-4-4s1.792-4 4-4c0.79 0 1.52 0.236 2.138 0.628 0.654-3.76 3.912-6.628 7.862-6.628 3.953 0 7.18 2.882 7.828 6.648 0.625-0.406 1.371-0.648 2.172-0.648 2.207 0 4 1.792 4 4s-1.793 4-4 4c-0.32 0-0.625-0.047-0.926-0.117-0.904 1.277-2.389 2.117-4.074 2.117-0.346 0-0.676-0.051-1-0.125v2.029c0.326 0.053 0.658 0.096 1 0.096 1.912 0 3.641-0.77 4.904-2.014 0.033 0.002 0.061 0.014 0.096 0.014 3.314 0 6-2.686 6-6s-2.686-6-6-6zM18 16h-4v10h-4l6 6 6-6h-4v-10z"></path>
</svg>
