<svg xmlns="http://www.w3.org/2000/svg" width="32" height="32">
  <path d="M8.6602.8691a1.0001 1.0001 0 0 0-.6934.2872L1.7031 7.1582l-.0078.0078c-.3784.378-.5194.9417-.4277 1.461.0016.0092.004.018.0058.0273a1.0001 1.0001 0 0 0 .0703.2559 1.0001 1.0001 0 0 0 .002.0039c.076.2082.19.4012.3496.5605l.004.002 6.2597 6.127a1.0006 1.0006 0 1 0 1.4004-1.4298l-4.7657-4.662h23.2188a1.0001 1.0001 0 1 0 0-2H4.2246l5.127-4.9102A1.0001 1.0001 0 0 0 8.6602.869zm14.4215 14.1403a1.0001 1.0001 0 0 1 .6934.2871l6.2637 6.002.0078.0078c.3783.378.5194.9417.4277 1.461-.0016.0092-.0041.018-.0059.0273a1.0001 1.0001 0 0 1-.0703.2558 1.0001 1.0001 0 0 1-.002.004c-.076.2082-.19.4011-.3496.5605l-.004.0019-6.2597 6.127a1.0006 1.0006 0 1 1-1.4003-1.4298l4.7656-4.662H3.9294a1.0001 1.0001 0 1 1 0-2h23.5879l-5.127-4.9102a1.0001 1.0001 0 0 1 .6914-1.7324z" color="#000" font-family="sans-serif" font-weight="400" overflow="visible" white-space="normal"/>
</svg>
