<svg width="18" height="18" viewBox="0 0 18 18" fill="none" xmlns="http://www.w3.org/2000/svg">
<g id="Frame" clip-path="url(#clip0_550_117)">
<path id="Vector 1" d="M9 17V8L17 4.5V14L9 17Z" fill="black" fill-opacity="0.4"/>
<path id="Vector 2" d="M9 17V8L1 4.5V14L9 17Z" fill="black" fill-opacity="0.4"/>
<path id="Vector" d="M8.30039 0.206203C8.75039 0.0355544 9.24961 0.0355544 9.69961 0.206203L16.7309 2.87333C17.4937 3.16337 18 3.89532 18 4.71446V13.2856C18 14.1047 17.4937 14.8359 16.7309 15.1277L9.69961 17.7926C9.24961 17.9332 8.75039 17.9332 8.30039 17.7926L1.27055 15.1277C0.505898 14.8359 0 14.1047 0 13.2856V4.71446C0 3.89532 0.505898 3.16337 1.27055 2.87333L8.30039 0.206203ZM9.09844 1.78384C9.03516 1.75958 8.9332 1.75958 8.90156 1.78384L2.23664 4.31017L9 6.96798L15.7641 4.31017L9.09844 1.78384ZM1.86891 13.5492L8.15625 15.9328V8.45157L1.6875 5.90978V13.2856C1.6875 13.4016 1.75992 13.507 1.86891 13.5492ZM9.84375 15.9328L16.1297 13.5492C16.2387 13.507 16.3125 13.4016 16.3125 13.2856V5.90978L9.84375 8.45157V15.9328Z" fill="black"/>
</g>
<defs>
<clipPath id="clip0_550_117">
<rect width="18" height="18" fill="white"/>
</clipPath>
</defs>
</svg>
