<svg width="37" height="33" viewBox="0 0 37 33" fill="none" xmlns="http://www.w3.org/2000/svg">
<path d="M28 5.81189V13.8L28.0063 13.8063L34.5062 16.0688C35.7 16.55 36.5 17.6813 36.5 18.95V26.8375C36.5 28.05 35.7688 29.1438 34.65 29.6063L28.15 32.3C27.4125 32.6 26.5875 32.6 25.85 32.3L18.5 29.2563L11.15 32.3C10.4125 32.6 9.5875 32.6 8.85 32.3L2.35312 29.6063C1.23125 29.1438 0.5 28.05 0.5 26.8375V18.95C0.5 17.6813 1.2975 16.55 2.49188 16.0688L8.99375 13.8063L9 13.8V5.81189C9 4.54376 9.8 3.41251 10.9937 2.98626L17.4937 0.666825C18.1437 0.434138 18.8563 0.434138 19.5063 0.666825L26.0063 2.98626C27.2 3.41251 28 4.54376 28 5.81189ZM18.8375 2.55064C18.6187 2.47314 18.3813 2.47314 18.1625 2.55064L11.6625 4.87001C11.5188 4.92189 11.3875 5.00626 11.2875 5.11189L18.4438 7.87501L25.7125 5.11189C25.6125 5.00626 25.4812 4.92189 25.3375 4.87001L18.8375 2.55064ZM11.0063 13.8063L17.4438 16.1188V9.63751L10.9438 7.14376V13.8L11.0063 13.8063ZM19.5 16.1188L25.9937 13.8063L26 13.8V7.14376L19.5 9.63751V16.1188ZM10.4438 22.2875V30.4L17.4438 27.5063V19.7625L10.4438 22.2875ZM3.1175 27.7625L8.44375 29.9875V22.2563L2.44375 19.8063V26.8375C2.44375 27.2375 2.74375 27.6063 3.1175 27.7625ZM26.5 22.2875L19.5 19.7625V27.5063L26.5 30.4V22.2875ZM28.5 29.9875L33.8812 27.7625C34.2562 27.6063 34.5 27.2375 34.5 26.8375V19.8063L28.5 22.2563V29.9875ZM10.3375 15.6875C10.1187 15.6125 9.88125 15.6125 9.6625 15.6875L3.28437 17.9625L9.525 20.5125L16.6562 17.9438L10.3375 15.6875ZM20.3438 17.9438L27.475 20.5125L33.7125 17.9625L27.3375 15.6875C27.1187 15.6125 26.8813 15.6125 26.6625 15.6875L20.3438 17.9438Z" fill="#FBFBFB"/>
</svg>
