<svg width="40" height="40" viewBox="0 0 40 40" fill="none" xmlns="http://www.w3.org/2000/svg">
<rect width="40" height="40" rx="20" fill="#252525"/>
<g clip-path="url(#clip0_2_5184)">
<path d="M19.3004 11.2062C19.7504 11.0356 20.2496 11.0356 20.6996 11.2062L27.7309 13.8733C28.4937 14.1634 29 14.8953 29 15.7145V24.2856C29 25.1047 28.4937 25.8359 27.7309 26.1277L20.6996 28.7926C20.2496 28.9332 19.7504 28.9332 19.3004 28.7926L12.2705 26.1277C11.5059 25.8359 11 25.1047 11 24.2856V15.7145C11 14.8953 11.5059 14.1634 12.2705 13.8733L19.3004 11.2062ZM20.0984 12.7838C20.0352 12.7596 19.9332 12.7596 19.9016 12.7838L13.2366 15.3102L20 17.968L26.7641 15.3102L20.0984 12.7838ZM12.8689 24.5492L19.1562 26.9328V19.4516L12.6875 16.9098V24.2856C12.6875 24.4016 12.7599 24.507 12.8689 24.5492ZM20.8438 26.9328L27.1297 24.5492C27.2387 24.507 27.3125 24.4016 27.3125 24.2856V16.9098L20.8438 19.4516V26.9328Z" fill="#B8B8B8"/>
</g>
<defs>
<clipPath id="clip0_2_5184">
<rect width="18" height="18" fill="white" transform="translate(11 11)"/>
</clipPath>
</defs>
</svg>
