<svg width="33" height="32" viewBox="0 0 33 32" fill="none" xmlns="http://www.w3.org/2000/svg">
<rect x="1.0835" y="0.75" width="30.5" height="30.5" rx="15.25" stroke="#FBFBFB" stroke-width="1.5"/>
<path d="M26.021 16C26.021 21.3503 21.6838 25.6875 16.3335 25.6875C10.9832 25.6875 6.646 21.3503 6.646 16C6.646 10.6497 10.9832 6.3125 16.3335 6.3125C21.6838 6.3125 26.021 10.6497 26.021 16ZM20.4878 14.6199C20.6806 13.3309 19.699 12.6379 18.3569 12.1757L18.7923 10.4295L17.7293 10.1646L17.3054 11.8648C17.026 11.7951 16.7389 11.7295 16.4537 11.6644L16.8806 9.95305L15.8182 9.68816L15.3826 11.4337C15.1512 11.381 14.9242 11.3289 14.7038 11.2742L14.705 11.2687L13.239 10.9027L12.9562 12.0379C12.9562 12.0379 13.7449 12.2187 13.7283 12.2298C14.1588 12.3373 14.2366 12.6222 14.2236 12.848L13.7276 14.8373C13.7573 14.8448 13.7958 14.8557 13.8381 14.8727C13.8027 14.8639 13.7649 14.8542 13.7258 14.8448L13.0306 17.6315C12.9779 17.7623 12.8444 17.9584 12.5435 17.884C12.5541 17.8994 11.7708 17.6911 11.7708 17.6911L11.2431 18.9078L12.6265 19.2526C12.8838 19.3171 13.136 19.3846 13.3843 19.4482L12.9444 21.2143L14.0062 21.4792L14.4418 19.7318C14.7234 19.8081 15.0058 19.8814 15.289 19.9516L14.8548 21.6908L15.9178 21.9557L16.3577 20.1929C18.1704 20.5359 19.5335 20.3975 20.1072 18.7582C20.5695 17.4383 20.0842 16.6769 19.1304 16.1804C19.825 16.0204 20.3482 15.5636 20.4878 14.6199ZM18.059 18.0254C17.7304 19.3453 15.5079 18.6317 14.7873 18.4528L15.371 16.113C16.0916 16.2928 18.4023 16.6488 18.059 18.0254ZM18.3878 14.6009C18.088 15.8015 16.2381 15.1915 15.638 15.042L16.1672 12.9198C16.7674 13.0693 18.6999 13.3484 18.3878 14.6009Z" fill="#FBFBFB"/>
<path d="M22.0816 10.9234L21.9593 11.2893C21.2783 11.8187 20.8335 12.6323 20.8335 13.5536V13.7322C20.8335 14.1795 21.2061 14.5 21.6147 14.5C22.0234 14.5 22.396 14.1795 22.396 13.7322V13.5536C22.396 13.4121 22.4188 13.275 22.4617 13.1456C22.9318 13.7552 23.6846 14.1429 24.521 14.1429L24.5327 14.1429L24.5352 14.1429C26.4234 14.1334 27.8335 12.3876 27.8335 10.3912C27.8335 9.85423 27.7342 9.34045 27.5519 8.87444L27.5519 8.87444L27.5512 8.87266C27.4419 8.59659 27.1828 8.49863 26.9916 8.50002C26.8052 8.50137 26.584 8.59216 26.4612 8.8094L26.4603 8.81092C26.3296 9.04392 26.0617 9.21501 25.7397 9.21501H24.521C23.3918 9.21501 22.4168 9.92071 22.0816 10.9234Z" fill="#FBFBFB" stroke="#252525"/>
</svg>
