<svg width="33" height="32" viewBox="0 0 33 32" fill="none" xmlns="http://www.w3.org/2000/svg">
<g id="&#240;&#159;&#166;&#134; icon &#34;Clock&#34;">
<path id="Vector" d="M17.8899 16.1097V16.237L17.9929 16.3118L22.3025 19.4473L22.3032 19.4478C22.5364 19.6162 22.5879 19.9428 22.4147 20.1827L21.2031 21.8518C21.203 21.852 21.2029 21.8522 21.2027 21.8523C21.0325 22.0831 20.7045 22.1363 20.4674 21.9654C20.4673 21.9653 20.4671 21.9652 20.467 21.9651L14.9921 17.9863C14.9918 17.9861 14.9915 17.9859 14.9912 17.9856C14.8552 17.8843 14.777 17.7268 14.777 17.5613V6.96774C14.777 6.68001 15.0135 6.44355 15.3012 6.44355H17.3658C17.6535 6.44355 17.8899 6.68001 17.8899 6.96774V16.1097ZM0.583496 16C0.583496 7.29936 7.63286 0.25 16.3335 0.25C25.0341 0.25 32.0835 7.29936 32.0835 16C32.0835 24.7006 25.0341 31.75 16.3335 31.75C7.63286 31.75 0.583496 24.7006 0.583496 16ZM3.18027 16C3.18027 23.2671 9.06639 29.1532 16.3335 29.1532C23.6006 29.1532 29.4867 23.2671 29.4867 16C29.4867 8.7329 23.6006 2.84677 16.3335 2.84677C9.06639 2.84677 3.18027 8.7329 3.18027 16Z" fill="white" stroke="#252525" stroke-width="0.5"/>
</g>
</svg>
