<svg width="18" height="32" viewBox="0 0 18 32" fill="none" xmlns="http://www.w3.org/2000/svg">
<g id="&#240;&#159;&#166;&#134; icon &#34;Dollar Sign&#34;">
<path id="Vector" d="M13.0766 14.5875L6.32663 12.6125C5.54538 12.3875 5.00163 11.6562 5.00163 10.8438C5.00163 9.825 5.82663 9 6.84538 9H10.9891C11.7516 9 12.5016 9.23125 13.1266 9.65625C13.5079 9.9125 14.0204 9.85 14.3454 9.53125L16.5204 7.40625C16.9641 6.975 16.9016 6.25625 16.4079 5.875C14.8766 4.675 12.9641 4.00625 11.0016 4V1C11.0016 0.45 10.5516 0 10.0016 0H8.00163C7.45163 0 7.00163 0.45 7.00163 1V4H6.84538C2.86413 4 -0.335871 7.41875 0.0328793 11.475C0.295379 14.3563 2.49538 16.7 5.27038 17.5125L11.6766 19.3875C12.4579 19.6188 13.0016 20.3438 13.0016 21.1562C13.0016 22.175 12.1766 23 11.1579 23H7.01413C6.25163 23 5.50163 22.7687 4.87663 22.3438C4.49538 22.0875 3.98288 22.15 3.65788 22.4688L1.48288 24.5938C1.03913 25.025 1.10163 25.7437 1.59538 26.125C3.12663 27.325 5.03913 27.9937 7.00163 28V31C7.00163 31.55 7.45163 32 8.00163 32H10.0016C10.5516 32 11.0016 31.55 11.0016 31V27.9875C13.9141 27.9312 16.6454 26.2 17.6079 23.4438C18.9516 19.5938 16.6954 15.6437 13.0766 14.5875Z" fill="white"/>
</g>
</svg>
