<svg width="25" height="32" viewBox="0 0 25 32" fill="none" xmlns="http://www.w3.org/2000/svg">
<g id="Frame" clip-path="url(#clip0_2_5100)">
<path id="Vector" d="M14.1105 1.4925C14.1105 0.5675 13.3711 0 12.608 0C12.1437 0 11.6705 0.211875 11.3511 0.678125C3.66737 11.9938 14.6667 12.5 14.6667 18C14.6667 20.2087 12.8755 21.9994 10.668 21.9994C10.6502 21.9994 10.6321 21.9993 10.6143 21.999C8.3605 21.9688 6.66675 20.1375 6.66675 17.9375V12.5938C6.66675 11.6862 5.92612 11.0913 5.15612 11.0913C4.775 11.0913 4.38675 11.2367 4.07737 11.5623C2.4055 13.325 0.666748 16.3313 0.666748 19.9438C0.666748 26.6188 6.04987 32 12.6667 32C19.2836 32 24.6667 26.6169 24.6667 20C24.6667 9.35625 14.1105 7.9375 14.1105 1.4925ZM12.6667 30C7.153 30 2.66675 25.5138 2.66675 20C2.66675 17.3137 3.78425 15.2237 4.66675 13.9919V17.94C4.66675 21.24 7.32362 23.9581 10.668 23.9988C13.973 23.9438 16.6667 21.3062 16.6667 18C16.6667 15.225 14.8692 13.4787 13.283 11.9937C10.9567 9.73312 9.23175 8.0575 12.3061 3.01875C12.8637 5.88688 15.0036 7.86375 17.0824 9.7875C19.8292 12.2688 22.6667 14.8875 22.6667 20C22.6667 25.5125 18.1792 30 12.6667 30Z" fill="#FBFBFB"/>
</g>
<defs>
<clipPath id="clip0_2_5100">
<rect width="24" height="32" fill="white" transform="translate(0.666748)"/>
</clipPath>
</defs>
</svg>
