<svg width="18" height="16" viewBox="0 0 18 16" fill="none" xmlns="http://www.w3.org/2000/svg">
<g id="Frame" clip-path="url(#clip0_550_1004)">
<path id="Vector" d="M17.7344 7.17812C18.05 7.44688 18.0906 7.91875 17.8219 8.23438C17.5531 8.55 17.0812 8.59062 16.7656 8.32187L16 7.67188V13.5C16 14.8813 14.8812 16 13.5 16H4.5C3.11937 16 2 14.8813 2 13.5V7.67188L1.23531 8.32187C0.919374 8.59062 0.446249 8.55 0.178124 8.23438C-0.0898451 7.91875 -0.0510638 7.44688 0.26478 7.17812L8.51562 0.178125C8.79375 -0.059375 9.20625 -0.059375 9.48437 0.178125L17.7344 7.17812ZM4.5 14.5H6V9.75C6 9.05937 6.55937 8.5 7.25 8.5H10.75C11.4406 8.5 12 9.05937 12 9.75V14.5H13.5C14.0531 14.5 14.5 14.0531 14.5 13.5V6.4L9 1.73344L3.5 6.4V13.5C3.5 14.0531 3.94687 14.5 4.5 14.5ZM7.5 14.5H10.5V10H7.5V14.5Z" fill="#B8B8B8"/>
</g>
<defs>
<clipPath id="clip0_550_1004">
<rect width="18" height="16" fill="white"/>
</clipPath>
</defs>
</svg>
