<svg width="18" height="16" viewBox="0 0 18 16" fill="none" xmlns="http://www.w3.org/2000/svg">
<g id="Frame" clip-path="url(#clip0_2_5069)">
<path id="Vector" d="M8.34087 0.247674C8.69087 -0.0822324 9.28149 -0.0822324 9.65962 0.247674L17.6596 7.24711C18.0752 7.61274 18.1159 8.24399 17.7534 8.65961C17.3877 9.07524 16.7565 9.11586 16.3409 8.75336L9.00024 2.32899L1.65868 8.75336C1.24305 9.11586 0.61149 9.07524 0.247678 8.65961C-0.11601 8.24399 -0.0738849 7.61274 0.341803 7.24711L8.34087 0.247674Z" fill="black"/>
<path id="Vector_2" opacity="0.4" d="M9.00011 2.32874L16.0032 8.45624L16.0157 14.7469C16.0189 15.4375 15.4595 16 14.7657 16H12.2501C11.5595 16 11.0001 15.4406 11.0001 14.75V11.9906C11.0001 11.4375 10.5532 10.9906 10.0001 10.9906H8.00011C7.44698 10.9906 7.00011 11.4375 7.00011 11.9906V14.75C7.00011 15.4406 6.44073 16 5.75011 16H3.25323C2.53448 16 2.00292 15.4406 2.00261 14.75L2.00073 8.45311L9.00011 2.32874Z" fill="black"/>
</g>
<defs>
<clipPath id="clip0_2_5069">
<rect width="18" height="16" fill="white"/>
</clipPath>
</defs>
</svg>
