<svg xmlns="http://www.w3.org/2000/svg" class="isologo" version="1" viewBox="0 20 393.1 422.7">
  <g id="leaves">
    <path d="M194.8 107.2c17.3 15.8 26.6 31.4 27.2 46 .1 13.6-7.3 26.8-22 39.5v-36.4c0-2.8-2.3-5.1-5.1-5.1l-.1-44z" class="leaf-1"/>
    <path d="M194.8 151.1c-2.8 0-5.1 2.3-5.1 5.1v36.4c-14.8-12.8-22.1-25.9-22-39.5.6-14.6 9.9-30.2 27.1-46v44z" class="leaf-2"/>
    <path d="M290 237.7c-.7-1.1-1.8-1.9-3-2.2-1.6-.3-2.7-.2-3.9.6l-4.4 2.7c5.4-15.5 20.3-11.6 26.5-10.1l-15.2 9z" class="leaf-2"/>
    <path d="M305.2 228.7c-1.7 6.1-5.5 21.1-21.7 18.3l4.5-2.5c1.3-.7 1.9-1.5 2.4-3.1.4-1.4.2-2.7-.4-3.7l15.2-9z" class="leaf-1"/>
  </g>
  <path d="M312.5 220.2s-18.9-7.1-31.6-.2c-7.4 4-12.6 12.3-14.2 25.3l-6.2 3.6c-3-2.6-6.8-4.2-11.1-4.2s-8.2 1.6-11.1 4.2l-27.2-15.7c.3-1.2.4-2.5.4-3.8 0-7.5-4.9-13.8-11.7-16v-7.2l2.5-1.8c20.7-16.4 30.7-33.5 30-51.3-.2-18.3-11.6-37.1-34.1-56.7-.9-.8-1.9-1.2-3-1.3h-1c-1.1.1-2.1.5-3 1.3-22.5 19.5-33.9 38.4-34.1 56.7-.7 17.9 9.3 35 30 51.3l2.5 1.8v7.2c-6.8 2.2-11.7 8.5-11.7 16 0 1.3.2 2.6.4 3.8l-27.2 15.7c-3-2.6-6.9-4.2-11.1-4.2-9.3 0-16.8 7.5-16.8 16.8 0 7.5 4.9 13.9 11.8 16v31.1c-6.8 2.1-11.8 8.5-11.8 16 0 9.3 7.5 16.8 16.8 16.8 4.5 0 8.5-1.8 11.6-4.6l26.8 15.5c-.3 1.2-.4 2.4-.4 3.7 0 9.3 7.5 16.8 16.8 16.8s16.8-7.5 16.8-16.8c0-1.3-.1-2.5-.4-3.7l26.8-15.5c3 2.9 7.1 4.6 11.6 4.6 9.3 0 16.8-7.5 16.8-16.8 0-7.5-4.9-13.9-11.7-16v-31.1c6.8-2.1 11.8-8.5 11.8-16 0-1.3-.2-2.6-.5-3.9l5.8-3.4c12.4 5.2 22.3 4.6 29.5 0 12.1-7.7 15-27.7 15-27.7.5-2.5-1.6-5.7-3.8-6.3zm-79.4 37.4c-.3 1.2-.4 2.5-.4 3.8 0 1.1.1 2.2.3 3.3l-26.9 15.5c-1.8-1.6-3.9-2.8-6.2-3.6v-31.3c2.2-.7 4.3-1.9 6-3.4l27.2 15.7zm-30.8 35c0 4.2-3.4 7.6-7.6 7.6-4.2 0-7.6-3.4-7.6-7.6 0-4.2 3.4-7.6 7.6-7.6 4.2.1 7.6 3.5 7.6 7.6zm-34.7-139.4c.6-14.6 9.9-30.2 27.1-46 17.3 15.8 26.6 31.4 27.2 46 .1 13.6-7.3 26.8-22 39.5v-36.4c0-2.8-2.3-5.1-5.1-5.1s-5.1 2.3-5.1 5.1v36.4c-14.8-12.8-22.1-25.9-22.1-39.5zm27.2 68.6c4.2 0 7.6 3.4 7.6 7.6s-3.4 7.6-7.6 7.6c-4.2 0-7.6-3.4-7.6-7.6s3.4-7.6 7.6-7.6zm-11.2 20.1c1.7 1.5 3.8 2.7 6 3.4v31.3c-2.3.7-4.4 2-6.2 3.6l-26.9-15.5c.2-1.1.3-2.2.3-3.3 0-1.3-.2-2.6-.4-3.8l27.2-15.7zm-51.1 19.5c0-4.2 3.4-7.6 7.6-7.6 4.2 0 7.6 3.4 7.6 7.6 0 4.2-3.4 7.5-7.6 7.5-4.2.1-7.6-3.3-7.6-7.5zm7.6 70.8c-4.2 0-7.6-3.4-7.6-7.6 0-4.2 3.4-7.6 7.6-7.6 4.2 0 7.6 3.4 7.6 7.6-.1 4.2-3.5 7.6-7.6 7.6zm11-20.2c-1.7-1.5-3.7-2.6-5.9-3.4v-31.2c2.4-.8 4.5-2.1 6.3-3.7l26.8 15.5c-.2 1.1-.4 2.3-.4 3.5 0 1.2.1 2.4.4 3.6L151.1 312zm5.4 15.8c.2-1 .3-2.1.3-3.2 0-1.3-.2-2.6-.4-3.8l27.1-15.7c1.8 1.6 3.8 2.8 6.2 3.5v31.3c-2.3.7-4.4 1.9-6.1 3.5l-27.1-15.6zm38.3 35.7c-4.2 0-7.6-3.4-7.6-7.6 0-4.2 3.4-7.6 7.6-7.6 4.2 0 7.6 3.4 7.6 7.6-.1 4.2-3.5 7.6-7.6 7.6zm38.2-35.7l-27 15.6c-1.7-1.6-3.8-2.8-6.1-3.5v-31.3c2.3-.7 4.4-2 6.1-3.5l27.1 15.6c-.3 1.2-.4 2.5-.4 3.9 0 1.1.1 2.2.3 3.2zm-21.8-31.6c.3-1.2.4-2.4.4-3.6 0-1.2-.1-2.4-.4-3.5l26.8-15.5c1.8 1.7 3.9 3 6.3 3.8v31.2c-2.2.7-4.2 1.9-5.9 3.4l-27.2-15.8zm45.8 28.4c0 4.2-3.4 7.6-7.6 7.6-4.2 0-7.6-3.4-7.6-7.6 0-4.2 3.4-7.6 7.6-7.6 4.2 0 7.6 3.4 7.6 7.6zm-7.5-55.6c-4.2 0-7.6-3.4-7.6-7.5 0-4.2 3.4-7.6 7.6-7.6 4.2 0 7.6 3.4 7.6 7.6 0 4.1-3.4 7.5-7.6 7.5zm34-22l4.5-2.5c1.3-.7 1.9-1.5 2.4-3.1.9-2.9-1.2-5.4-3.4-5.8-1.6-.3-2.7-.2-3.9.6l-4.4 2.7c5.4-15.5 20.3-11.6 26.5-10.1-1.7 6-5.5 21-21.7 18.2z"/>
  <path d="M104.6 526.2l-.2.2c-1 .8-2.2 1.3-3.6 1.3h-.1c-1.4 0-2.7-.5-3.7-1.3-.9-.8-1.5-1.8-1.7-3l1.2-.2c.1.8.6 1.6 1.3 2.2 1.7 1.4 4.3 1.3 5.9-.1.9-.9 1.4-2.1 1.3-3.4-.1-1.2-.6-2.3-1.6-3-1-.8-2-1-3-1.2-1.2-.3-2.4-.5-3.5-1.6-1-1.1-1.6-2.3-1.5-3.6.1-1.1.5-2.2 1.5-3.1 1.1-1 2.4-1.3 3.7-1.3 1.4 0 2.7.5 3.7 1.4.6.6 1.1 1.3 1.3 2.1l-1.2.2c-.2-.5-.5-.9-.9-1.3-1.6-1.4-4.2-1.4-5.8-.1-.7.6-1.1 1.4-1.1 2.2-.1.9.4 1.8 1.2 2.7.8.8 1.8 1 2.8 1.3 1.1.2 2.2.5 3.5 1.4 1.2.9 2 2.3 2.1 3.9.1 1.6-.5 3.1-1.6 4.3zm21.3-17.7v18.9h-1.2v-16.6l-7 8.8-7.3-8.8v16.7h-1.2v-18.9h1l7.5 9.1 7.2-9.1h1zm10.6-.1l7.5 19h-1.3l-1.5-3.7c-1 .4-2.6.8-5.1.8-2.5 0-4.1-.5-5.1-.8l-1.4 3.7h-1.3l7.3-19h.9zm4.2 14.2l-4.6-11.8-4.6 11.8c.2.1.4.1.6.2.8.3 2.2.6 4.1.6 2.2-.1 3.7-.5 4.5-.8zm12.9-2l4 6.8h-1.4l-3.9-6.7c-1.8.1-3.7-.2-4.6-.5v7.1h-1.2V509l.4-.1c.2-.1 6-1.9 9.4.6 1.5 1.1 2.2 2.8 2.2 5.1s-.7 4-2.2 5.1c-.9.3-1.7.7-2.7.9zm1.9-2.1c1.1-.8 1.7-2.2 1.7-4.1s-.6-3.2-1.7-4c-2.4-1.7-6.5-.9-7.8-.5v9.1c1.3.4 5.4 1.2 7.8-.5zm16.5-8.8h-5.4v17.8h-1.2v-17.8H160v-1.2h12v1.2zm13.3 16.5v1.2h-11.1v-18.9H185v1.2h-9.5v9.5h7.3v1.2h-7.3v5.7h9.8zm10.1-5.6l4.1 6.8h-1.4l-3.9-6.7c-1.8.1-3.6-.2-4.6-.5v7.1h-1.2V509l.4-.1c.2-.1 6.1-1.9 9.4.6 1.5 1.1 2.2 2.8 2.2 5.1s-.7 4-2.2 5.1c-1 .3-1.8.7-2.8.9zm1.9-2.1c1.1-.8 1.7-2.2 1.7-4.1s-.6-3.2-1.7-4c-2.3-1.7-6.5-.9-7.8-.5v9.1c1.3.4 5.4 1.2 7.8-.5zm24.6-.4c.9 1.1 1.4 2.3 1.4 3.6 0 1.9-.6 3.4-1.9 4.4-1.3 1-3.1 1.3-4.7 1.3-2.3 0-4.3-.6-4.4-.6l-.4-.1v-17.6l.4-.1c.2-.1 5.1-1.4 7.8.6 1.1.8 1.7 2.1 1.7 3.8 0 1.4-.4 2.6-1.2 3.4l-.1.1c.4.3.9.7 1.4 1.2zm-8.8-1.2h2.9c1.6 0 2.9-.4 3.6-1.1.6-.6.9-1.5.9-2.5 0-1.3-.4-2.2-1.2-2.8-1.1-.8-2.9-.9-4.1-.8-.9.1-1.7.2-2.1.4v6.8zm9 4.9c0-1-.4-2-1.1-2.8-.5-.6-1.2-1.1-1.8-1.3-.8.4-1.9.6-3.1.6h-3v7.6c.5.1 1.5.3 2.6.4 2.7.2 4.2-.4 4.9-1 1-.8 1.5-2 1.5-3.5zm4.4-13.4h1.2v19h-1.2v-19zm16 1.3h-5.4v17.8h-1.2v-17.8h-5.4v-1.2h12v1.2zm17.8 13.8c-.3.5-.7 1-1.1 1.4-1.7 1.8-4 2.8-6.4 2.9h-.4c-2.4-.1-4.7-1.1-6.4-2.9-1.8-1.8-2.8-4.3-2.8-6.9 0-2.6 1-5 2.8-6.9 1.7-1.8 4-2.8 6.4-2.9h.4c2.4.1 4.7 1.1 6.4 2.9.4.4.8.9 1.1 1.4l-1.1.5c-1.5-2.1-3.9-3.5-6.6-3.5-4.5.1-8.1 3.9-8.1 8.5s3.6 8.4 8.1 8.5c2.7-.1 5.1-1.5 6.6-3.6l1.1.6zm11.1 4.2h-.4c-2.4-.1-4.7-1.1-6.4-2.9-1.8-1.9-2.8-4.3-2.8-7 0-2.6 1-5.1 2.8-6.9 1.7-1.8 3.9-2.8 6.4-2.9h.4c2.4.1 4.6 1.1 6.4 2.9 1.8 1.9 2.8 4.3 2.8 6.9 0 2.6-1 5.1-2.8 7-1.7 1.8-4 2.8-6.4 2.9zm-.1-18.4c-4.5.1-8.1 3.9-8.1 8.6 0 4.7 3.6 8.5 8.1 8.6 4.5-.1 8.1-3.9 8.1-8.6 0-4.7-3.7-8.5-8.1-8.6zm12.5-.9h1.2v19h-1.2v-19zm18.6.1v18.9h-.9L290 511.1v16.4h-1.2v-18.9h.9l11.4 16.3v-16.3h1.3z" id="claim"/>
  <path d="M251.3 445.4l47.6-46.3h-14.7l-38.1 37v-36.6h-10.4v94.8h10.4v-39.6l38.7 39.2h14.6zm-104.2 10.4c7.5-5.6 11.3-14.2 11.3-25.8 0-11.6-3.8-20.2-11.3-25.8-5.9-4.3-13.8-6.5-23.6-6.5-12.2 0-22.9 3.4-23 3.5l-3.6 1.1v91.6h10.4v-33.4c4.3.9 10 1.8 15.9 1.8.9 0 1.9 0 2.8-.1l18.7 31.7h12L137 460.6c3.6-1.1 7-2.7 10.1-4.8zm.9-25.8c0 8-2.4 13.9-7.1 17.5-4.1 3-9.9 4.5-17.4 4.5-6.6 0-12.8-1.2-16.3-2v-40c3.5-.8 9.7-2 16.3-2 7.5 0 13.3 1.5 17.4 4.5 4.7 3.6 7.1 9.4 7.1 17.5zm65.1 15.1c-6.1-4.6-12-6-17.2-7.2l-.5-.1c-4.8-1.2-8.7-2.2-12-5.6-3.5-3.6-5.2-7.4-5-11.1.1-3.3 1.6-6.4 4.5-9.1 3.2-2.7 7.4-4.1 11.9-4.1 4.7 0 9.2 1.6 12.5 4.5 1.7 1.4 2.9 3.3 3.8 5.4l.6 1.7L222 418l-.8-2.5c-1.3-4.2-3.8-7.9-7.1-10.8-5.1-4.6-12-7.1-19.2-7.1-7.4 0-13.7 2.3-19.2 6.9l-.1.1c-4.7 4.4-7.4 10-7.6 16.1-.3 6.5 2.5 13.2 8 18.8 5.5 5.7 11.8 7.1 17.3 8.4l1 .3c4.3 1.1 8.4 2.1 12.7 5.2 4.1 2.9 6.4 7.3 6.7 12.5.3 5.2-1.7 10.4-5.6 14.3-3.4 3-7.9 4.6-12.7 4.6-4.7 0-9.1-1.5-12.4-4.3-3-2.5-4.8-5.7-5.3-9.1l-.3-2.3-10.2 1.6.3 2.2c.8 5.9 3.9 11.4 8.8 15.6 5.3 4.4 12 6.7 19.1 6.7h.7c7-.1 13.6-2.6 18.6-7l.9-.9c5.8-5.8 8.9-13.8 8.5-22-.7-8.3-4.7-15.6-11-20.2z" id="logo"/>
</svg>

