<svg width="147" height="24" viewBox="0 0 147 24" fill="none" xmlns="http://www.w3.org/2000/svg">
<path d="M26.6323 21.0126V3.30777H34.0469C35.3602 3.30777 36.482 3.51029 37.3902 3.91655C38.2973 4.32281 38.9895 4.88371 39.4559 5.6005C39.9211 6.31728 40.1481 7.15312 40.1481 8.10801C40.1481 8.84812 40.0168 9.50476 39.7419 10.1013C39.4669 10.6978 39.0619 11.1875 38.512 11.5937C37.9634 12 37.3068 12.2737 36.5188 12.4296V12.5842C37.1153 12.7278 37.6173 12.9659 38.0235 13.301C38.4298 13.6349 38.7637 14.0411 39.0263 14.5063C39.3012 14.9837 39.5394 15.5569 39.7541 16.2492L41.2699 21.0003H37.497L36.1604 16.7745C35.9689 16.0945 35.7431 15.5692 35.4804 15.1863C35.2178 14.8045 34.8839 14.5296 34.4531 14.3627C34.0235 14.1958 33.4737 14.1 32.7814 14.1H30.3218V20.9893H26.6323V21.0126ZM33.4135 11.2709C34.0346 11.2709 34.5722 11.1752 35.0374 10.996C35.4915 10.8168 35.8486 10.5308 36.1003 10.1479C36.3506 9.76619 36.482 9.28874 36.482 8.73888C36.482 8.18902 36.3506 7.71158 36.1003 7.34214C35.8499 6.97147 35.4915 6.69777 35.0374 6.53084C34.5832 6.36392 34.0346 6.26819 33.4135 6.26819H30.3218V11.282H33.4135V11.2697V11.2709Z" fill="#FBFBFB"/>
<path d="M48.5764 21.3121C47.2398 21.3121 46.0333 21.0138 44.9594 20.4284C43.8731 19.8429 43.025 19.0071 42.404 17.9331C41.7829 16.8592 41.4724 15.6293 41.4724 14.2436C41.4724 12.8579 41.7829 11.6404 42.3917 10.5664C43.0005 9.49248 43.8596 8.64437 44.9348 8.04787C46.021 7.43909 47.2386 7.14084 48.5997 7.14084C49.9609 7.14084 51.1785 7.43909 52.2536 8.04787C53.3276 8.64437 54.1757 9.49248 54.7845 10.5664C55.3932 11.6404 55.7038 12.8702 55.7038 14.2559C55.7038 15.6416 55.3932 16.8592 54.7722 17.9331C54.1511 19.0071 53.3043 19.8429 52.2291 20.4406C51.1429 21.0138 49.9253 21.3121 48.5752 21.3121H48.5764ZM48.5764 18.3627C49.2564 18.3627 49.8664 18.1958 50.4028 17.8607C50.9403 17.5268 51.3699 17.0494 51.6927 16.4284C52.0033 15.8073 52.1702 15.0795 52.1702 14.2436C52.1702 13.4078 52.0155 12.691 51.705 12.0589C51.3945 11.4379 50.9649 10.9481 50.4273 10.6143C49.8897 10.2805 49.2687 10.1013 48.5887 10.1013C47.9087 10.1013 47.2987 10.2682 46.7624 10.6143C46.2248 10.9481 45.7952 11.4379 45.4847 12.0589C45.1742 12.68 45.0195 13.4201 45.0195 14.2559C45.0195 15.0917 45.1742 15.8085 45.497 16.4284C45.8075 17.0494 46.2371 17.5268 46.7747 17.8607C47.2877 18.1945 47.8965 18.3627 48.5777 18.3627H48.5764Z" fill="#FBFBFB"/>
<path d="M63.8104 21.3121C62.4738 21.3121 61.2673 21.0138 60.1934 20.4284C59.1072 19.8429 58.259 19.0071 57.638 17.9331C57.0169 16.8592 56.7064 15.6293 56.7064 14.2436C56.7064 12.8579 57.0169 11.6404 57.6257 10.5664C58.2345 9.49248 59.0937 8.64437 60.1688 8.04787C61.2551 7.43909 62.4726 7.14084 63.8338 7.14084C65.1949 7.14084 66.4125 7.43909 67.4876 8.04787C68.5616 8.64437 69.4097 9.49248 70.0185 10.5664C70.6273 11.6404 70.9378 12.8702 70.9378 14.2559C70.9378 15.6416 70.6273 16.8592 70.0062 17.9331C69.3852 19.0071 68.5383 19.8429 67.4631 20.4406C66.3769 21.0138 65.1593 21.3121 63.8092 21.3121H63.8104ZM63.8104 18.3627C64.4904 18.3627 65.1004 18.1958 65.6368 17.8607C66.1744 17.5268 66.6039 17.0494 66.9267 16.4284C67.2373 15.8073 67.4042 15.0795 67.4042 14.2436C67.4042 13.4078 67.2495 12.691 66.939 12.0589C66.6285 11.4379 66.1989 10.9481 65.6613 10.6143C65.1237 10.2805 64.5027 10.1013 63.8227 10.1013C63.1428 10.1013 62.5327 10.2682 61.9964 10.6143C61.4588 10.9481 61.0292 11.4379 60.7187 12.0589C60.4082 12.68 60.2535 13.4201 60.2535 14.2559C60.2535 15.0917 60.4082 15.8085 60.731 16.4284C61.0415 17.0494 61.4711 17.5268 62.0087 17.8607C62.5217 18.1945 63.1305 18.3627 63.8117 18.3627H63.8104Z" fill="#FBFBFB"/>
<path d="M78.22 21.2286C77.0859 21.2286 76.1789 21.0494 75.5222 20.691C74.8533 20.3326 74.3881 19.8429 74.1255 19.2464C73.8505 18.6376 73.7192 17.9209 73.7192 17.0973V10.1847H71.3197V7.40352H73.7192V4.00125H77.2172V7.40352H80.3691V10.1737H77.2172V16.9071C77.2172 17.3722 77.3608 17.7306 77.6468 17.981C77.9328 18.2314 78.3992 18.3517 79.0436 18.3517C79.4498 18.3517 79.8794 18.3038 80.3335 18.2203V20.8948C79.6769 21.1218 78.9724 21.2286 78.22 21.2286Z" fill="#FBFBFB"/>
<path d="M87.008 21.3231C85.5032 21.3231 84.2501 20.9893 83.2473 20.3203C82.2445 19.6514 81.5633 18.6965 81.2062 17.4434L84.0721 16.4762C84.3114 17.1807 84.6809 17.7294 85.1706 18.1123C85.6603 18.494 86.2691 18.6855 86.9736 18.6855C87.6781 18.6855 88.2267 18.5542 88.5974 18.3038C88.9681 18.0534 89.146 17.7073 89.146 17.301C89.146 16.9672 89.0626 16.6922 88.8956 16.5008C88.7287 16.2983 88.4415 16.1301 88.0475 15.9755C87.6536 15.8319 87.0804 15.6772 86.3525 15.5103C85.2062 15.2599 84.2991 14.9727 83.6425 14.6511C82.9859 14.3283 82.4961 13.9233 82.1856 13.409C81.8751 12.896 81.7082 12.2627 81.7082 11.4747C81.7082 10.6033 81.9352 9.85088 82.3771 9.19424C82.8189 8.53759 83.451 8.0356 84.2869 7.66616C85.1227 7.30777 86.0776 7.12857 87.1638 7.12857C88.1187 7.12857 88.9668 7.2599 89.7069 7.53483C90.447 7.80976 91.0435 8.21479 91.5222 8.75238C91.9997 9.28997 92.3335 9.94661 92.5127 10.71L89.6713 11.6649C89.4688 11.0684 89.146 10.602 88.7287 10.2559C88.2991 9.92207 87.7861 9.74287 87.1884 9.74287C86.7711 9.74287 86.4127 9.79074 86.1022 9.89752C85.7916 10.0055 85.5535 10.1602 85.3854 10.3627C85.2184 10.5652 85.135 10.8045 85.135 11.0795C85.135 11.39 85.2062 11.6404 85.3621 11.8196C85.5057 11.9988 85.7794 12.1534 86.1623 12.2848C86.544 12.4161 87.1049 12.5597 87.834 12.7143C89.0393 12.977 89.9954 13.263 90.6753 13.5858C91.3553 13.8963 91.8696 14.3136 92.1911 14.8156C92.5139 15.3286 92.6809 15.9742 92.6809 16.7855C92.6809 17.7048 92.4661 18.4928 92.0242 19.1728C91.5824 19.8417 90.938 20.367 90.0899 20.7487C89.2418 21.1304 88.2157 21.3219 87.0092 21.3219L87.008 21.3231Z" fill="#FBFBFB"/>
<path d="M100.056 21.2286C98.9221 21.2286 98.015 21.0494 97.3584 20.691C96.6895 20.3326 96.2243 19.8429 95.9617 19.2464C95.6867 18.6376 95.5554 17.9209 95.5554 17.0973V10.1847H93.1559V7.40352H95.5554V4.00125H99.0534V7.40352H102.205V10.1737H99.0534V16.9071C99.0534 17.3722 99.197 17.7306 99.483 17.981C99.769 18.2314 100.235 18.3517 100.88 18.3517C101.286 18.3517 101.716 18.3038 102.17 18.2203V20.8948C101.513 21.1218 100.809 21.2286 100.056 21.2286Z" fill="#FBFBFB"/>
<path d="M110.157 21.3121C108.821 21.3121 107.614 21.0138 106.54 20.4284C105.454 19.8429 104.606 19.0071 103.985 17.9331C103.364 16.8592 103.053 15.6294 103.053 14.2437C103.053 12.858 103.364 11.6404 103.973 10.5665C104.581 9.49251 105.44 8.6444 106.516 8.0479C107.602 7.43912 108.819 7.14087 110.181 7.14087C111.542 7.14087 112.759 7.43912 113.834 8.0479C114.908 8.6444 115.757 9.49251 116.365 10.5665C116.974 11.6404 117.285 12.8702 117.285 14.2559C117.285 15.6416 116.974 16.8592 116.353 17.9331C115.732 19.0071 114.885 19.8429 113.81 20.4407C112.724 21.0138 111.517 21.3121 110.156 21.3121H110.157ZM110.157 18.3627C110.837 18.3627 111.447 18.1958 111.984 17.8607C112.521 17.5269 112.951 17.0494 113.274 16.4284C113.584 15.8073 113.751 15.0795 113.751 14.2437C113.751 13.4078 113.596 12.691 113.286 12.0589C112.975 11.4379 112.546 10.9482 112.008 10.6143C111.471 10.2805 110.849 10.1013 110.17 10.1013C109.49 10.1013 108.88 10.2682 108.343 10.6143C107.806 10.9482 107.376 11.4379 107.065 12.0589C106.755 12.68 106.6 13.4201 106.6 14.2559C106.6 15.0918 106.755 15.8086 107.078 16.4284C107.388 17.0494 107.818 17.5269 108.355 17.8607C108.881 18.1946 109.477 18.3627 110.158 18.3627H110.157Z" fill="#FBFBFB"/>
<path d="M125.701 21.3231C124.435 21.3231 123.265 21.0605 122.19 20.5229C121.104 19.9853 120.244 19.1863 119.587 18.1234C118.93 17.0605 118.608 15.7828 118.608 14.3026C118.608 12.8224 118.918 11.568 119.55 10.4818C120.183 9.39554 121.03 8.57197 122.106 7.98652C123.179 7.40106 124.374 7.11508 125.675 7.11508C126.749 7.11508 127.716 7.3176 128.576 7.72386C129.435 8.13012 130.164 8.67875 130.738 9.38326C131.311 10.0878 131.728 10.888 131.967 11.7828L128.947 12.6542C128.803 12.1522 128.576 11.7116 128.29 11.3286C128.004 10.9469 127.646 10.6364 127.227 10.4093C126.81 10.1823 126.32 10.0755 125.783 10.0755C125.066 10.0755 124.422 10.2547 123.861 10.6008C123.3 10.9469 122.858 11.4367 122.547 12.0687C122.237 12.7021 122.07 13.4299 122.07 14.2412C122.07 15.0525 122.237 15.8171 122.572 16.4382C122.906 17.0592 123.36 17.5367 123.921 17.8595C124.482 18.1823 125.091 18.3492 125.759 18.3492C126.297 18.3492 126.774 18.2412 127.204 18.0264C127.634 17.8116 127.992 17.5134 128.29 17.155C128.589 16.7843 128.816 16.3793 128.97 15.9374L131.979 16.8334C131.764 17.6336 131.382 18.3738 130.832 19.066C130.284 19.746 129.567 20.2958 128.683 20.7131C127.812 21.1071 126.821 21.3219 125.698 21.3219L125.701 21.3231Z" fill="#FBFBFB"/>
<path d="M133.688 21.0126V3.30777H137.186V12.8346L142.678 7.40228H146.725L140.876 13.0617L146.69 21.0126H142.606L138.392 15.1863L137.174 16.3326V21.0126H133.688Z" fill="#FBFBFB"/>
<path d="M10.8374 6.59098C12.6574 6.59098 14.1328 5.11554 14.1328 3.29549C14.1328 1.47544 12.6574 0 10.8374 0C9.01731 0 7.54187 1.47544 7.54187 3.29549C7.54187 5.11554 9.01731 6.59098 10.8374 6.59098Z" fill="#FBFBFB"/>
<path d="M19.9947 13.4802C18.4188 12.5732 16.401 13.1095 15.494 14.6855C15.1834 15.2231 15.0398 15.8196 15.0521 16.405C15.0877 17.8619 13.7744 18.6143 12.5336 17.8619C12.4857 17.8386 12.4378 17.8018 12.3789 17.7785C11.1258 17.074 11.1258 15.5815 12.3789 14.8892C13.4062 14.3283 14.1095 13.2421 14.1095 11.9877V11.9165C14.0739 10.4597 15.3872 9.70727 16.6281 10.4597C17.6185 11.0684 18.9085 11.1163 19.9825 10.4952C21.5584 9.58822 22.096 7.57042 21.1877 5.99448C20.2807 4.41853 18.2629 3.88094 16.687 4.7892C15.613 5.41025 15.0153 6.55661 15.0398 7.71402C15.0754 9.17091 13.7621 9.92329 12.5323 9.17091C12.0303 8.86039 11.4461 8.68119 10.8128 8.68119C10.1795 8.68119 9.59523 8.86039 9.09323 9.15864C7.85113 9.89874 6.55012 9.14636 6.58571 7.70175C6.60903 6.53206 6.01253 5.39797 4.93858 4.77693C3.36264 3.8699 1.34484 4.41853 0.437814 5.99448C-0.469213 7.57042 0.0794217 9.58822 1.65537 10.4952C2.72931 11.1163 4.01928 11.0562 5.00977 10.4597C6.25187 9.70727 7.55288 10.4597 7.51729 11.9165V11.9877C7.51729 13.2409 8.20952 14.3283 9.24788 14.8892C10.501 15.5937 10.501 17.0862 9.24788 17.7785C9.20001 17.8018 9.15214 17.8386 9.10428 17.8619C7.86218 18.602 6.56116 17.8496 6.59676 16.405C6.60903 15.8196 6.46543 15.2231 6.15491 14.6744C5.24788 13.0985 3.23008 12.5609 1.65414 13.4692C0.0781945 14.4007 -0.459394 16.4185 0.44886 17.9945C1.35589 19.5704 3.37368 20.108 4.94963 19.1998C4.97295 19.1875 4.98522 19.1764 5.00977 19.1642C6.25187 18.4118 7.55288 19.1642 7.51729 20.6211V20.7045C7.51729 22.5198 8.9975 24 10.8128 24C12.6281 24 14.1083 22.5198 14.1083 20.7045V20.6333C14.0727 19.1764 15.386 18.4241 16.6268 19.1764C16.6502 19.1887 16.6747 19.1998 16.698 19.2243C18.274 20.1313 20.2918 19.595 21.1988 18.019C22.1058 16.4075 21.5695 14.3897 19.9935 13.4827L19.9947 13.4802Z" fill="#FBFBFB"/>
</svg>
