<svg xmlns="http://www.w3.org/2000/svg" viewBox="0 0 393 393">
  <path d="M196.26 40.09c-17.52 0-31.8 14.02-31.8 31.05 0 3.54.63 6.93 1.75 10.1l-57.98 32.18a32.08 32.08 0 0 0-23.67-10.38c-17.51 0-31.79 14.02-31.79 31.05 0 14.67 10.6 27.1 24.72 30.26L77.25 229c-13.94 3.3-24.35 15.64-24.35 30.18 0 17.03 14.3 31.05 31.8 31.05a32.1 32.1 0 0 0 23.13-9.8l58.25 32.9a29.94 29.94 0 0 0-1.25 8.53c0 17.03 14.3 31.05 31.8 31.05s31.8-14.02 31.8-31.04a30 30 0 0 0-1.16-8.29l58.55-32.5a32.07 32.07 0 0 0 22.62 9.3c17.51 0 31.79-14.03 31.79-31.05 0-14.65-10.59-27.08-24.7-30.26l.25-64.72c13.78-3.4 24.05-15.68 24.05-30.11 0-17.03-14.3-31.05-31.8-31.05a32.1 32.1 0 0 0-23.17 9.85L226.68 80.2a30.17 30.17 0 0 0 1.37-9.04c0-17.03-14.29-31.06-31.8-31.06zm0 14.39c9.43 0 16.97 7.34 16.97 16.66 0 9.33-7.54 16.67-16.97 16.67s-16.96-7.33-16.96-16.67c0-9.33 7.53-16.66 16.97-16.66zm22.92 38.11l58.33 32.91a30 30 0 0 0 .38 18.58L225 173.92c-6.08-11.15-15.09-19.42-20.79-23.93l-.42-48.7a32.05 32.05 0 0 0 15.37-8.7zm-45.02.8a32 32 0 0 0 14.8 7.97l.66 48.44c-5.7 4.47-14.88 12.8-21.06 24.16l-53.89-29.92a29.97 29.97 0 0 0 .62-17.96zm-89.6 24.03c9.43 0 16.97 7.35 16.97 16.67 0 9.33-7.56 16.67-16.97 16.67-9.42 0-16.96-7.34-16.96-16.67 0-9.33 7.54-16.67 16.96-16.67zm223.47.13c9.42 0 16.97 7.34 16.97 16.67 0 9.33-7.55 16.68-16.97 16.68-9.42 0-16.98-7.34-16.98-16.68 0-9.33 7.56-16.67 16.98-16.67zm-201.25 38.7l56.55 31.39a45.82 45.82 0 0 0-.29 19.33l-55.08 31.1a32.04 32.04 0 0 0-15.86-9.08l.24-64.78a32.08 32.08 0 0 0 14.44-7.97zm178.96.05a32.07 32.07 0 0 0 15.22 8.19l-.25 64.71a32.05 32.05 0 0 0-14.96 8.42L230.55 207a45.97 45.97 0 0 0-.3-19.37zm-88.93 7.02c7.98 7.28 20.57 21.24 19.66 36.44-.6 10.24-6.14 18.96-11.96 25.4v-22.98c0-4-3.34-7.24-7.46-7.24h-.12a7.36 7.36 0 0 0-7.36 7.24v.11-.02 23.43c-5.99-6.51-11.82-15.42-12.45-25.94-.9-15.2 11.68-29.17 19.67-36.44zm28.93 57.57l52.4 29.06a29.97 29.97 0 0 0 .03 18.8l-58.05 32.21a32.06 32.06 0 0 0-15.83-9.25l-.16-44.55c.19-.54.32-1.17.37-1.8v-.02c6.19-4.64 15.34-12.86 21.25-24.45zm-57.88 0c5.97 11.7 15.23 19.98 21.42 24.58l.17 46.14a32.07 32.07 0 0 0-16.1 9.17l-58.15-32.83a30.04 30.04 0 0 0 .05-17.36zM84.7 242.5c9.43 0 16.97 7.36 16.97 16.69 0 9.33-7.54 16.67-16.97 16.67-9.42 0-16.96-7.33-16.96-16.67 0-9.33 7.54-16.68 16.97-16.68zm223.74.15c9.43 0 16.97 7.35 16.97 16.67 0 9.33-7.56 16.67-16.97 16.67-9.42 0-16.96-7.33-16.96-16.67 0-9.33 7.54-16.67 16.96-16.67zm-111.8 62.55c9.42 0 16.97 7.34 16.97 16.67 0 9.32-7.55 16.66-16.97 16.66-9.43 0-16.97-7.33-16.97-16.66 0-2.7.64-5.21 1.77-7.44l1.3-2.19a16.95 16.95 0 0 1 13.9-7.04z" opacity=".99"/>
</svg>
