<svg width="16" height="14" viewBox="0 0 16 14" fill="none" xmlns="http://www.w3.org/2000/svg">
<path d="M0 1.09375C0 0.62793 0.37793 0.25 0.84375 0.25H14.9062C15.3738 0.25 15.75 0.62793 15.75 1.09375C15.75 1.56133 15.3738 1.9375 14.9062 1.9375H0.84375C0.37793 1.9375 0 1.56133 0 1.09375ZM0 6.71875C0 6.25117 0.37793 5.875 0.84375 5.875H14.9062C15.3738 5.875 15.75 6.25117 15.75 6.71875C15.75 7.18633 15.3738 7.5625 14.9062 7.5625H0.84375C0.37793 7.5625 0 7.18633 0 6.71875ZM14.9062 13.1875H0.84375C0.37793 13.1875 0 12.8113 0 12.3438C0 11.8762 0.37793 11.5 0.84375 11.5H14.9062C15.3738 11.5 15.75 11.8762 15.75 12.3438C15.75 12.8113 15.3738 13.1875 14.9062 13.1875Z" fill="#B8B8B8"/>
</svg>
