<svg width="33" height="26" viewBox="0 0 33 26" fill="none" xmlns="http://www.w3.org/2000/svg">
<g id="Frame" clip-path="url(#clip0_550_350)">
<path id="Vector" d="M16.6617 16.2C19.5322 16.2 21.8167 13.872 21.8167 11C21.8167 8.12801 19.4897 5.80001 16.6617 5.80001C13.7912 5.80001 11.5067 8.12801 11.5067 11C11.4617 13.87 13.7917 16.2 16.6617 16.2ZM16.6617 7.40001C18.6457 7.40001 20.2597 9.01501 20.2597 11C20.2597 12.985 18.6417 14.6 16.6617 14.6C14.6817 14.6 13.0617 12.985 13.0617 11C13.0617 9.01501 14.6767 7.40001 16.6617 7.40001ZM19.1617 17.8H14.1717C10.2467 17.8 7.06675 20.785 7.06675 24.465C7.06675 25.205 7.70175 25.8 8.48675 25.8H24.8467C25.6317 25.8 26.2667 25.205 26.2667 24.465C26.2667 20.785 23.0867 17.8 19.1617 17.8ZM8.67675 24.2C8.8278 21.5295 11.2362 19.4 14.1317 19.4H19.1617C22.1007 19.4 24.5067 21.5295 24.6167 24.2H8.67675ZM26.2667 8.20001C28.4757 8.20001 30.2667 6.40901 30.2667 4.20001C30.2667 1.99101 28.4767 0.200012 26.2667 0.200012C24.0577 0.200012 22.2667 1.99101 22.2667 4.20001C22.2667 6.40901 24.0567 8.20001 26.2667 8.20001ZM26.2667 1.80001C27.5902 1.80001 28.6667 2.87651 28.6667 4.20001C28.6667 5.52351 27.5917 6.60001 26.2667 6.60001C24.9417 6.60001 23.8667 5.52351 23.8667 4.20001C23.8667 2.87651 24.9417 1.80001 26.2667 1.80001ZM7.06675 8.20001C9.27575 8.20001 11.0667 6.40901 11.0667 4.20001C11.0667 1.99101 9.27675 0.200012 7.06675 0.200012C4.85775 0.200012 3.06675 1.99101 3.06675 4.20001C3.06675 6.40901 4.85775 8.20001 7.06675 8.20001ZM7.06675 1.80001C8.39025 1.80001 9.46675 2.87651 9.46675 4.20001C9.46675 5.52351 8.39175 6.60001 7.06675 6.60001C5.74175 6.60001 4.66675 5.52501 4.66675 4.20001C4.66675 2.87501 5.74175 1.80001 7.06675 1.80001ZM28.7217 9.80001H25.4667C24.9087 9.80001 24.3627 9.92501 23.8432 10.1719C23.444 10.3618 23.2737 10.8389 23.4635 11.2374C23.6533 11.6359 24.1325 11.8069 24.529 11.6171C24.8317 11.475 25.1467 11.4 25.4667 11.4H28.7207C29.9718 11.4 31.0667 12.535 31.0667 13.935V14.6C31.0667 15.0422 31.4245 15.4 31.8667 15.4C32.3089 15.4 32.6667 15.04 32.6667 14.6V13.935C32.6667 11.655 30.8967 9.80001 28.7217 9.80001ZM8.80675 11.615C9.20365 11.8049 9.68325 11.6338 9.87225 11.2353C10.0621 10.8369 9.89178 10.3593 9.49255 10.1698C8.97175 9.92501 8.42675 9.80001 7.86675 9.80001H4.61275C2.43725 9.80001 0.666748 11.655 0.666748 13.935V14.6C0.666748 15.0422 1.02455 15.4 1.46675 15.4C1.90895 15.4 2.26675 15.04 2.26675 14.6V13.935C2.26675 12.535 3.31925 11.4 4.61275 11.4H7.86675C8.18675 11.4 8.50175 11.475 8.80675 11.615Z" fill="#FBFBFB"/>
</g>
<defs>
<clipPath id="clip0_550_350">
<rect width="32" height="25.6" fill="white" transform="translate(0.666748 0.200012)"/>
</clipPath>
</defs>
</svg>
