<svg width="16" height="16" viewBox="0 0 16 16" fill="none" xmlns="http://www.w3.org/2000/svg">
<g id="Basics/Search">
<path id="Vector" d="M14.9043 13.8215L11.5848 10.502C11.5219 10.4391 11.4398 10.4062 11.3523 10.4062H10.9914C11.8527 9.4082 12.375 8.10938 12.375 6.6875C12.375 3.5457 9.8293 1 6.6875 1C3.5457 1 1 3.5457 1 6.6875C1 9.8293 3.5457 12.375 6.6875 12.375C8.10938 12.375 9.4082 11.8527 10.4062 10.9914V11.3523C10.4062 11.4398 10.4418 11.5219 10.502 11.5848L13.8215 14.9043C13.95 15.0328 14.1578 15.0328 14.2863 14.9043L14.9043 14.2863C15.0328 14.1578 15.0328 13.95 14.9043 13.8215ZM6.6875 11.0625C4.27031 11.0625 2.3125 9.10469 2.3125 6.6875C2.3125 4.27031 4.27031 2.3125 6.6875 2.3125C9.10469 2.3125 11.0625 4.27031 11.0625 6.6875C11.0625 9.10469 9.10469 11.0625 6.6875 11.0625Z" fill="#B8B8B8"/>
</g>
</svg>
