<svg width="40" height="40" viewBox="0 0 40 40" fill="none" xmlns="http://www.w3.org/2000/svg">
<rect width="40" height="40" rx="20" fill="#252525"/>
<path d="M27.4946 21.1997L26.4464 20.6152C26.4782 20.2153 26.4782 19.7847 26.4464 19.3848L27.4946 18.8003C27.8123 18.6465 27.9393 18.2773 27.844 17.9697C27.4946 16.6162 26.7641 15.3857 25.7476 14.4321C25.6206 14.2783 25.3982 14.2168 25.2076 14.2168C25.0488 14.2168 24.9218 14.2476 24.7947 14.3091L23.7783 14.8936C23.4289 14.6475 23.0795 14.4629 22.6983 14.2783V13.1094C22.6983 12.771 22.4442 12.4634 22.0948 12.4019C21.4277 12.2173 20.6972 12.125 19.9984 12.125C19.2996 12.125 18.6008 12.2173 17.902 12.4019C17.5526 12.4634 17.3302 12.771 17.3302 13.1094V14.2783C16.949 14.4629 16.5679 14.6475 16.2502 14.8936L15.202 14.3091C15.075 14.2476 14.9479 14.2168 14.8209 14.2168C14.5985 14.2168 14.4079 14.2783 14.2491 14.4321C13.2644 15.3857 12.5339 16.6162 12.1527 17.9697C12.0574 18.2773 12.2162 18.6465 12.5021 18.8003L13.5503 19.3848C13.5185 19.7847 13.5185 20.2153 13.5503 20.6152L12.5021 21.1997C12.2162 21.3535 12.0574 21.7227 12.1527 22.0303C12.5339 23.3838 13.2644 24.6143 14.2491 25.5679C14.4079 25.7217 14.5985 25.7832 14.8209 25.7832C14.9479 25.7832 15.075 25.7524 15.202 25.6909L16.2502 25.1064C16.5679 25.3525 16.949 25.5371 17.3302 25.7217V26.8906C17.3302 27.229 17.5526 27.5366 17.902 27.5981C18.6008 27.7827 19.2996 27.875 19.9984 27.875C20.6972 27.875 21.4277 27.7827 22.0948 27.5981C22.4442 27.5366 22.6983 27.229 22.6983 26.8906V25.7217C23.0795 25.5371 23.4289 25.3525 23.7783 25.1064L24.7947 25.6909C24.9218 25.7524 25.0488 25.7832 25.2076 25.7832C25.3982 25.7832 25.5888 25.7217 25.7476 25.5679C26.7641 24.6143 27.4946 23.3838 27.844 22.0303C27.9393 21.7227 27.8123 21.3535 27.4946 21.1997ZM25.0488 24.1221C24.3183 23.6914 24.6994 23.9067 23.683 23.353C22.3489 24.2759 22.6348 24.0913 21.1736 24.7681V26.3062C20.1254 26.46 19.2996 26.3677 18.8549 26.3062V24.7681C17.362 24.0913 17.6796 24.2759 16.3455 23.353C15.3291 23.9067 15.615 23.7529 14.9479 24.1221C14.4397 23.5376 14.0585 22.8916 13.8044 22.1841C14.4715 21.8149 14.1538 21.9688 15.1703 21.415C15.0115 19.8154 15.0115 20.1846 15.1703 18.585C14.1538 18.0312 14.4715 18.1851 13.8044 17.8159C14.0585 17.1084 14.4397 16.4624 14.9479 15.8779C15.7103 16.3086 15.2973 16.0933 16.3455 16.647C17.6796 15.7241 17.362 15.9087 18.8549 15.2319V13.6938C19.8713 13.54 20.6972 13.6323 21.1736 13.6938V15.2319C22.6348 15.9087 22.3489 15.7241 23.683 16.647C24.763 16.0625 24.3818 16.2471 25.0488 15.8779C25.5571 16.4624 25.9382 17.1084 26.2241 17.8159C25.5571 18.1851 25.8429 18.0312 24.8265 18.585C24.9853 20.1846 24.9853 19.8154 24.8265 21.415C25.8429 21.9688 25.5571 21.8149 26.2241 22.1841C25.9382 22.8916 25.5571 23.5376 25.0488 24.1221ZM19.9984 17.0469C18.3149 17.0469 16.949 18.3696 16.949 20C16.949 21.6304 18.3149 22.9531 19.9984 22.9531C21.6819 22.9531 23.0477 21.6304 23.0477 20C23.0477 18.3696 21.6819 17.0469 19.9984 17.0469ZM19.9984 21.4766C19.1725 21.4766 18.4737 20.7998 18.4737 20C18.4737 19.2002 19.1725 18.5234 19.9984 18.5234C20.8242 18.5234 21.523 19.2002 21.523 20C21.523 20.7998 20.856 21.4766 19.9984 21.4766Z" fill="#B8B8B8"/>
</svg>
