<svg width="16" height="16" viewBox="0 0 16 16" fill="none" xmlns="http://www.w3.org/2000/svg">
<path id="Vector" d="M8.5625 0.125C9.49414 0.125 10.25 0.880508 10.25 1.8125V14.1875C10.25 15.1191 9.49414 15.875 8.5625 15.875H7.4375C6.50586 15.875 5.75 15.1191 5.75 14.1875V1.8125C5.75 0.880508 6.50586 0.125 7.4375 0.125H8.5625ZM8.5625 1.8125H7.4375V14.1875H8.5625V1.8125ZM2.9375 6.875C3.86914 6.875 4.625 7.63086 4.625 8.5625V14.1875C4.625 15.1191 3.86914 15.875 2.9375 15.875H1.8125C0.880508 15.875 0.125 15.1191 0.125 14.1875V8.5625C0.125 7.63086 0.880508 6.875 1.8125 6.875H2.9375ZM2.9375 8.5625H1.8125V14.1875H2.9375V8.5625ZM11.375 4.0625C11.375 3.13086 12.1309 2.375 13.0625 2.375H14.1875C15.1191 2.375 15.875 3.13086 15.875 4.0625V14.1875C15.875 15.1191 15.1191 15.875 14.1875 15.875H13.0625C12.1309 15.875 11.375 15.1191 11.375 14.1875V4.0625ZM13.0625 14.1875H14.1875V4.0625H13.0625V14.1875Z" fill="#B8B8B8"/>
</svg>
