<svg width="16" height="18" viewBox="0 0 16 18" fill="none" xmlns="http://www.w3.org/2000/svg">
<g id="Frame" clip-path="url(#clip0_550_1015)">
<path id="Vector" d="M3.7459 17.4726C4.07637 17.8031 4.61074 17.8031 4.9377 17.4726C5.26465 17.1422 5.26816 16.6078 4.9377 16.2808L3.0041 14.3473L15.0311 14.3437C15.4986 14.3437 15.8748 13.9676 15.8748 13.5C15.8748 13.0324 15.4986 12.6562 15.0311 12.6562H3.0041L4.9377 10.7226C5.26816 10.3922 5.26816 9.8578 4.9377 9.53085C4.60723 9.20389 4.07285 9.20038 3.7459 9.53085L0.370898 12.9023C0.0404297 13.2328 0.0404297 13.7672 0.370898 14.0941L3.7459 17.4691V17.4726ZM15.6287 5.09764C15.9592 4.76718 15.9592 4.2328 15.6287 3.90585L12.2537 0.527332C11.9232 0.196863 11.3889 0.196863 11.0619 0.527332C10.735 0.8578 10.7314 1.39218 11.0619 1.71913L12.9955 3.65272L0.968555 3.65624C0.500977 3.65624 0.124805 4.03241 0.124805 4.49999C0.124805 4.96757 0.500977 5.34374 0.968555 5.34374H12.9955L11.0619 7.27733C10.7314 7.6078 10.7314 8.14218 11.0619 8.46913C11.3924 8.79608 11.9268 8.7996 12.2537 8.46913L15.6287 5.09413V5.09764Z" fill="black"/>
</g>
<defs>
<clipPath id="clip0_550_1015">
<rect width="15.75" height="18" fill="white" transform="translate(0.125)"/>
</clipPath>
</defs>
</svg>
