<svg width="40" height="40" viewBox="0 0 40 40" fill="none" xmlns="http://www.w3.org/2000/svg">
<rect width="40" height="40" rx="20" fill="#252525"/>
<g clip-path="url(#clip0_2_5306)">
<path d="M15.7461 28.4726C16.0766 28.8031 16.611 28.8031 16.9379 28.4726C17.2649 28.1422 17.2684 27.6078 16.9379 27.2808L15.0043 25.3473L27.0313 25.3437C27.4989 25.3437 27.875 24.9676 27.875 24.5C27.875 24.0324 27.4989 23.6562 27.0313 23.6562H15.0043L16.9379 21.7226C17.2684 21.3922 17.2684 20.8578 16.9379 20.5308C16.6075 20.2039 16.0731 20.2004 15.7461 20.5308L12.3711 23.9023C12.0407 24.2328 12.0407 24.7672 12.3711 25.0941L15.7461 28.4691V28.4726ZM27.629 16.0976C27.9594 15.7672 27.9594 15.2328 27.629 14.9058L24.254 11.5273C23.9235 11.1969 23.3891 11.1969 23.0622 11.5273C22.7352 11.8578 22.7317 12.3922 23.0622 12.7191L24.9958 14.6527L12.9688 14.6562C12.5012 14.6562 12.125 15.0324 12.125 15.5C12.125 15.9676 12.5012 16.3437 12.9688 16.3437H24.9958L23.0622 18.2773C22.7317 18.6078 22.7317 19.1422 23.0622 19.4691C23.3926 19.7961 23.927 19.7996 24.254 19.4691L27.629 16.0941V16.0976Z" fill="#B8B8B8"/>
</g>
<defs>
<clipPath id="clip0_2_5306">
<rect width="15.75" height="18" fill="white" transform="translate(12.125 11)"/>
</clipPath>
</defs>
</svg>
