<svg width="16" height="18" viewBox="0 0 16 18" fill="none" xmlns="http://www.w3.org/2000/svg">
<path d="M3.7459 17.4727C4.07637 17.8032 4.61074 17.8032 4.9377 17.4727C5.26465 17.1422 5.26816 16.6079 4.9377 16.2809L3.0041 14.3473L15.0311 14.3438C15.4986 14.3438 15.8748 13.9676 15.8748 13.5C15.8748 13.0325 15.4986 12.6563 15.0311 12.6563H3.0041L4.9377 10.7227C5.26816 10.3922 5.26816 9.85786 4.9377 9.53091C4.60723 9.20395 4.07285 9.20044 3.7459 9.53091L0.370898 12.9024C0.0404297 13.2329 0.0404297 13.7672 0.370898 14.0942L3.7459 17.4692V17.4727ZM15.6287 5.09771C15.9592 4.76724 15.9592 4.23286 15.6287 3.90591L12.2537 0.527393C11.9232 0.196924 11.3889 0.196924 11.0619 0.527393C10.735 0.857861 10.7314 1.39224 11.0619 1.71919L12.9955 3.65278L0.968555 3.6563C0.500977 3.6563 0.124805 4.03247 0.124805 4.50005C0.124805 4.96763 0.500977 5.3438 0.968555 5.3438H12.9955L11.0619 7.27739C10.7314 7.60786 10.7314 8.14224 11.0619 8.46919C11.3924 8.79614 11.9268 8.79966 12.2537 8.46919L15.6287 5.09419V5.09771Z" fill="#B8B8B8"/>
</svg>
