<!-- Generated by IcoMoon.io -->
<svg version="1.1" xmlns="http://www.w3.org/2000/svg" width="22" height="24" viewBox="0 0 22 24">
<title>cube</title>
<path d="M12 21.817l8.571-4.674v-8.518l-8.571 3.121v10.071zM11.143 10.232l9.348-3.402-9.348-3.402-9.348 3.402zM22.286 6.857v10.286c0 0.629-0.348 1.205-0.897 1.5l-9.429 5.143c-0.254 0.147-0.536 0.214-0.817 0.214s-0.563-0.067-0.817-0.214l-9.429-5.143c-0.549-0.295-0.897-0.871-0.897-1.5v-10.286c0-0.723 0.455-1.366 1.125-1.607l9.429-3.429c0.188-0.067 0.388-0.107 0.589-0.107s0.402 0.040 0.589 0.107l9.429 3.429c0.67 0.241 1.125 0.884 1.125 1.607z"></path>
</svg>
