<!-- Generated by IcoMoon.io -->
<svg version="1.1" xmlns="http://www.w3.org/2000/svg" width="24" height="32" viewBox="0 0 24 32">
<title>database</title>
<path d="M12 30c-6.626 0-12-1.793-12-4 0-1.207 0-2.527 0-4 0-0.348 0.174-0.678 0.424-1 1.338 1.723 5.99 3 11.576 3s10.238-1.277 11.576-3c0.25 0.322 0.424 0.652 0.424 1 0 1.158 0 2.387 0 4 0 2.207-5.375 4-12 4zM12 22c-6.626 0-12-1.793-12-4 0-1.208 0-2.526 0-4 0-0.212 0.080-0.418 0.188-0.622v0c0.061-0.128 0.141-0.254 0.236-0.378 1.338 1.722 5.99 3 11.576 3s10.238-1.278 11.576-3c0.096 0.124 0.176 0.25 0.236 0.378v0c0.107 0.204 0.188 0.41 0.188 0.622 0 1.158 0 2.386 0 4 0 2.207-5.375 4-12 4zM12 14c-6.626 0-12-1.792-12-4 0-0.632 0-1.3 0-2 0-0.636 0-1.296 0-2 0-2.208 5.374-4 12-4s12 1.792 12 4c0 0.624 0 1.286 0 2 0 0.612 0 1.258 0 2 0 2.208-5.375 4-12 4zM12 4c-4.418 0-8 0.894-8 2s3.582 2 8 2 8-0.894 8-2-3.582-2-8-2z"></path>
</svg>
