<!-- Generated by IcoMoon.io -->
<svg version="1.1" xmlns="http://www.w3.org/2000/svg" width="512" height="512" viewBox="0 0 512 512">
<title></title>
<g id="icomoon-ignore">
</g>
<path fill="#000" d="M192 288h-160c-17.688 0-32 14.312-32 32v160c0 17.688 14.312 32 32 32h160c17.688 0 32-14.312 32-32v-160c0-17.688-14.312-32-32-32zM160 448h-96v-96h96v96zM192 0h-160c-17.688 0-32 14.312-32 32v160c0 17.688 14.312 32 32 32h160c17.688 0 32-14.312 32-32v-160c0-17.688-14.312-32-32-32zM160 160h-96v-96h96v96zM480 288h-160c-17.688 0-32 14.312-32 32v160c0 17.688 14.312 32 32 32h160c17.688 0 32-14.312 32-32v-160c0-17.688-14.312-32-32-32zM448 448h-96v-96h96v96zM480 0h-160c-17.688 0-32 14.312-32 32v160c0 17.688 14.312 32 32 32h160c17.688 0 32-14.312 32-32v-160c0-17.688-14.312-32-32-32zM448 160h-96v-96h96v96z"></path>
</svg>
