<svg width="200mm" height="200mm" viewBox="0 0 200 200">
  <path d="M89.294452 9.93181v.001c-1.187232.0134-2.313905.66968-4.152915 2.26645-6.231887 5.41101-12.38523 11.95108-16.576956 17.61881-6.156017 8.32369-9.560605 16.14969-10.728097 24.65897-.330222 2.40678-.280621 8.6019.08782 10.96962 1.05579 6.78481 3.52215 12.85354 7.81571 19.23083 2.636574 3.91613 5.532213 7.3286 9.452866 11.1396 2.934106 2.85203 7.03749 6.34556 8.269001 7.04016l.858772.48446.0025 2.8235.0028 2.8235-1.223883.50215c-2.992045 1.22773-5.80595 3.84137-7.206248 6.69312-.449138.91468-.954023 2.19335-1.122248 2.84155-.303711 1.1702-.426604 4.1408-.238684 5.77379l.09066.78794-11.50542 6.66372-11.505421 6.66372-1.056377-.77768c-4.446661-3.27346-10.650886-3.57809-15.459667-.75891-1.540515.90314-4.105525 3.43961-4.972025 4.91643-1.487877 2.53589-2.216377 5.9554-1.858842 8.72512.252919 1.9593.943129 4.02228 1.883278 5.62894.885743 1.51369 3.258762 3.91476 4.722361 4.77831 4.876782 2.87743 10.76481 2.70582 15.398026-.44903l1.426092-.97104 11.386078 6.54296 11.386432 6.54331-.01311 2.56604c-.01471 2.94944.216814 4.06226 1.325164 6.37369 2.064372 4.30519 6.113266 7.27248 10.742265 7.87273 1.677703.21718 2.148821.21732 3.726185 0 5.892949-.80927 10.620411-5.07912 11.944541-10.78866.27362-1.17978.3745-4.23726.17742-5.37644l-.10269-.59317 6.48488-3.70494c3.56678-2.03764 8.74491-5.00115 11.50683-6.58581l5.02161-2.88122.96182.72596c2.29039 1.72907 5.39672 2.74624 8.37949 2.74418 6.22331-.004 11.37976-3.71901 13.46306-9.69899.46762-1.34223.50584-1.66035.50996-4.26092l.005-2.8104 1.38749-.92075 1.38714-.92074 1.3326.52943c2.00259.79568 5.42778 1.74107 7.76897 2.14428 2.60297.44829 6.65391.48667 8.91671.0846 4.2461-.75442 8.19061-3.01882 11.13075-6.38997 3.75705-4.30781 6.29813-9.91809 8.05333-17.77923.62721-2.80912.6175-3.2644-.0981-4.50953-.77119-1.34187-1.4887-1.79737-4.21134-2.67406-7.79252-2.50919-14.71543-3.07562-20.1413-1.64778-3.85623 1.01478-7.99616 3.63246-10.35202 6.54579-2.95726 3.65704-5.21333 8.93362-6.08152 14.22409l-.31482 1.91835-1.51498.95403-1.51498.95439-1.13747-.86232c-2.51205-1.90376-5.3849-2.85503-8.57179-2.83837-3.13588.0164-6.07122.96168-8.32034 2.67901-.75214.57431-.92336.63595-1.26107.45471-.21492-.11534-5.40888-3.17067-11.54189-6.78944-10.12171-5.97228-11.14738-6.62001-11.11304-7.01891.14876-1.72754.0382-4.46977-.22418-5.55209-.39233-1.61865-1.67036-4.23549-2.703092-5.53474-1.152819-1.45035-3.011265-2.93355-4.771232-3.80835l-1.495857-.74332v-2.93328c.000002-2.864.0096-2.9372.407961-3.12416.224379-.10531 1.562355-1.11819 2.972946-2.25052 14.424874-11.57924 22.461344-23.58111 24.085284-35.96926.35749-2.72676.35705-7.96228-.002-10.72916-1.26321-9.74875-6.18104-19.52895-15.03824-29.90793-2.46253-2.88561-8.650916-9.0992-11.765718-11.81352-1.939517-1.69015-2.501029-2.08094-3.340179-2.32488-.43791-.12731-.840181-.19429-1.235925-.18982zm.0942 10.27658c.317557 0 7.365045 7.11487 9.339191 9.42843 7.313657 8.5711 11.486927 16.45412 13.101847 24.74963.448 2.30115.44343 7.70896-.008 9.97238-1.67406 8.39054-5.89618 15.6621-13.531411 23.30442-1.547251 1.54869-3.323178 3.24993-3.946456 3.78037l-1.133224.96429V76.42839c0-17.47571.04714-16.67691-1.05213-17.84936-.268948-.28685-.897013-.71442-1.395636-.95014-2.120483-1.00246-4.614727-.13158-5.773427 2.01573-.387489.71808-.39227.8551-.503932 13.87067-.06202 7.22996-.123241 14.18571-.135987 15.45719-.01278 1.27201-.0986 2.31177-.190523 2.31177-.345474 0-6.740688-6.52029-8.351159-8.51441-10.563143-13.07952-12.213719-25.71576-5.17422-39.61329 2.143178-4.23113 4.587926-7.87713 8.214109-12.25052 1.826672-2.20307 10.196964-10.69764 10.541117-10.69764zm-.983072 95.8255c1.5861 0 1.942647.0606 2.846164.48409 1.317586.61761 2.579501 1.87953 3.197113 3.19712.418218.89216.484099 1.26764.484099 2.75551 0 1.48784-.06591 1.86334-.484099 2.7555-.61846 1.3194-1.88129 2.58112-3.197113 3.19428-1.301074.60629-3.653208.74416-4.916777.28826-3.806013-1.37319-5.582136-5.6892-3.78816-9.20568.561772-1.10116 1.902803-2.41689 3.025711-2.96834.907186-.44553 1.220154-.50074 2.833062-.50074zm82.31568 6.46646c2.05721-.0117 4.32007.25883 6.80112.81096 1.14682.25522 2.11608.49389 2.15383.53014.1763.1693-1.73737 5.3048-2.71442 7.28451-.90111 1.82584-1.34157 2.4815-2.48814 3.70282-1.69901 1.80978-3.47146 2.99986-5.49083 3.68687-1.34967.45916-1.8231.52486-4.15256.5744-1.44599.0308-2.77722-.007-2.95842-.0839-.25826-.10955.12728-.39191 1.78341-1.30675 2.99521-1.65455 3.70964-2.57202 3.71238-4.7638.001-1.01866-.29534-1.80549-.99158-2.6312-.81371-.96506-1.80126-1.38558-3.26829-1.39175-1.23069-.005-1.32923.0291-3.24421 1.13217-1.08621.62572-2.00927 1.10318-2.05149 1.06098-.11709-.11709.99926-2.25483 1.76358-3.37701 1.03344-1.51736 2.81687-3.12231 4.20391-3.7832 1.99185-.94907 4.29673-1.43027 6.94171-1.44522zm-72.703454 10.55316c.102774.0394 5.240624 3.05267 11.417244 6.6963l11.23026 6.62476.007 2.99313.007 2.99313-11.30144 6.4955c-6.21591 3.57253-11.404842 6.51943-11.530572 6.54863-.12573.0292-.333542-.0738-.462144-.22877-.356186-.42917-2.706175-1.82531-3.676605-2.1843l-.861251-.31836v-26.76819l1.495856-.70649c.822724-.38858 1.944009-1.04645 2.491679-1.46187.547676-.41541 1.079676-.72294 1.182449-.68347zm-18.759122.12359l1.128621.77236c.620674.42473 1.679019 1.0119 2.352151 1.30498l1.223883.53297v26.8932l-1.042567.42142c-.573408.2318-1.678143.8534-2.454848 1.38112-.776589.52762-1.429425.95821-1.450528.95615-.02108-.002-5.177353-2.95945-11.458675-6.5727l-11.420782-6.56952.08853-.81592c.120789-1.11598.09051-3.59096-.05241-4.2935l-.117219-.57654 11.602098-6.71718zm-36.84539 9.71067c.75894.0112 1.520469.15131 2.249096.42744 2.826761 1.07128 4.642873 4.26942 4.101921 7.22361-.400023 2.18453-1.788272 3.99141-3.761953 4.89588-2.036911.93344-4.688478.69043-6.551456-.60061-3.430015-2.377-3.734921-7.37567-.623628-10.21921 1.260293-1.15183 2.916338-1.75176 4.58602-1.72711zm92.318156.0138c2.36161.0421 4.70465 1.33376 5.908 3.78461.47428.96601.52887 1.25697.5227 2.80049-.005 1.4967-.0713 1.85579-.50003 2.73992-.59553 1.22807-2.13799 2.73971-3.33912 3.27254-1.169.51858-3.6268.63618-4.75245.22735-4.16305-1.512-5.80545-6.3737-3.36356-9.95679 1.3424-1.96979 3.44072-2.90533 5.52446-2.86812zm-46.239109 26.62127c1.52424.00069 1.848232.0604 2.76684.51066 1.320093.6471 2.512067 1.83577 3.151428 3.14258.700062 1.43088.810399 3.53119.262057 4.98477-.730326 1.93597-2.237917 3.45909-4.000637 4.04207-2.49696.82581-4.851707.296-6.77704-1.5249-1.403039-1.32693-2.005679-2.72479-1.995537-4.62851.01434-2.69761 1.290394-4.76659 3.658545-5.93243 1.109573-.54623 1.349026-.59492 2.934344-.59424z"/>
</svg>
