<svg xmlns="http://www.w3.org/2000/svg" width="1024" height="1024">
  <path d="M1020.656 233.3c-4.885 26.047-14.914 62.1-35.302 94.961-16.726 27.024-37.806 47.389-62.564 60.478a145.651 145.607 0 01-15.318 6.959c-45.034 17.388-92.614 9.783-126.03-.453l-14.308-4.381 13.16-7.025 69.627-36.958a27.48 27.472 0 0010.66-9.882 27.76 27.752 0 001.235-27.237c-.045-.124-.053-.227-.124-.31l-.362-.703a27.867 27.859 0 00-1.512-2.442l1.565 2.553 161.423-86.113c-.26 1.577-1.854 8.881-2.15 10.553m-7.813-14.646c-24.355-10.467-59.891-22.234-98.55-23.618-31.764-1.177-60.422 4.974-85.098 18.232a145.647 145.602 0 00-14.312 8.832c-39.54 27.69-59.739 71.426-69.854 104.873l-4.337 14.316 13.167-7.012 69.5-37.201a27.48 27.472 0 0114.144-3.344 27.76 27.752 0 0123.312 14.16c.078.103.16.17.19.276l.382.692c.445.844.837 1.73 1.187 2.61l-1.187-2.61 161.414-86.113c-1.453-.663-8.402-3.41-9.959-4.093M462.15 51.188C207.569 51.188 1.194 257.498 1.194 512c0 254.497 206.379 460.808 460.955 460.812 254.58 0 460.954-206.315 460.954-460.812a460.38 460.38 0 00-3.871-59.584 206.102 206.039 0 01-36.946 9.33c-.86.136-1.713.284-2.574.412-2.208.313-4.423.589-6.652.84a218.586 218.519 0 01-10.886.976 231.25 231.25 0 01-6.989.321c-1.4.042-2.793.115-4.201.136a233.71 233.638 0 01-21.879-.675 268.84 268.756 0 01-19.655-2.236 303.153 303.059 0 01-45.368-10.57h-.007c-22.525-7.057-42.077-15.852-57.325-23.786l-2.8-1.544-2.88 1.577-23.279 12.422a95.053 95.023 0 01-.21 14.663v.007a97.29 97.259 0 01-2.479 14.654c-2.405 9.668-6.322 19.03-11.743 27.467a84.878 84.878 0 01-4.345 6.148v.007c-6.94 8.935-15.783 16.499-26.512 21.839a75.458 75.458 0 01-3.645 1.696 79.817 79.793 0 01-15.985 4.987c-.643.131-.927.288-.902.494.01.098.103.206.267.333.16.128.387.272.684.428 1.19.63 3.43 1.524 6.339 2.854 2.9 1.33 6.454 3.088 10.288 5.435a78.057 78.057 0 018.921 6.366 67.786 67.766 0 0114.264 16.169 67.716 67.716 0 014.642 8.774c1.223 2.796 2.285 5.818 3.208 9.018.124.424.276.819.395 1.251v.007c.495 1.845.94 3.755 1.318 5.736 1.524 7.93 2.06 16.985 1.232 27.328-.206 2.581-.498 5.25-.886 8a167.27 167.22 0 01-3.46 17.507 175.035 174.98 0 01-1.791 6.593 153.061 153.014 0 01-4.49 13.126v.007a133.695 133.653 0 01-2.743 6.44v.007a117.022 116.986 0 01-6.602 12.447 96.465 96.436 0 01-13.032 16.923 86.605 86.578 0 01-11.054 9.602 83.817 83.79 0 01-6.302 4.158l-.004.004a87.206 87.18 0 01-14.28 6.835 94.508 94.508 0 01-8.031 2.599 102.263 102.263 0 01-8.646 1.976c-2.001.37-5.7.865-10.972 1.219-5.045.338-11.532.56-19.548.412-12.294-.23-28.065-1.31-47.262-4.077h-.007a510.038 509.88 0 01-20.335-3.376l-20.705 82.416-49.252-12.727 20.38-81.09a9584.505 9581.545 0 00-37.168-9.737l-20.4 81.217-49.248-12.731 20.375-81.102c-29.35-7.428-51.76-12.938-67.95-16.973-16.187-4.03-26.163-6.588-30.648-8.128l24.654-58.773 39.314 8.758c4.049.906 7.31 1.12 9.976.733 2.669-.383 4.744-1.37 6.42-2.882.42-.37.808-.782 1.183-1.227.37-.44.72-.906 1.054-1.408v-.004a22.77 22.77 0 001.792-3.356v-.007a43.926 43.926 0 001.495-4.01v-.007a100.73 100.73 0 001.334-4.616c.75-2.804 3.716-15.173 7.843-32.528 8.258-34.71 21.17-89.366 30.322-127.395 4.576-19.015 8.213-33.87 9.86-39.993 1.104-4.089 1.796-7.827 2.134-11.25.226-2.28.292-4.417.226-6.422a39.528 39.515 0 00-.206-2.916 34.165 34.155 0 00-.972-5.258 27.855 27.847 0 00-3.818-8.436 26.937 26.928 0 00-2.624-3.29 28.827 28.818 0 00-2.961-2.75 32.332 32.322 0 00-3.172-2.261h-.004a37.394 37.383 0 00-3.282-1.832h-.007a42.06 42.06 0 00-3.291-1.454c-5.429-2.15-10.413-2.964-12.653-3.623-10.94-3.2-21.088-5.65-21.088-5.65.894-2.486 2.084-6.933 3.357-12.208 3.826-15.827 8.464-39.1 8.464-39.1s9.563 2.38 26.603 6.712c17.039 4.336 41.546 10.627 71.444 18.45l20.429-81.336 49.248 12.74-20.495 81.575c11.895 3.17 24.292 6.48 37.11 9.94l20.577-81.905 49.256 12.73-20.738 82.527c1.339.363 2.673.733 4.012 1.1 5.671 1.56 11.763 3.66 18.04 6.25h.004a186.011 185.954 0 0119.066 9.19h.007c12.71 7.045 25.062 15.853 34.976 26.023l20.763-11.064 2.842-1.577.375-3.216a360.35 360.238 0 019.588-50.159c4.255-15.984 10.107-33.483 18.184-51.16.66-1.449 1.43-2.902 2.121-4.352a273.72 273.635 0 017.925-15.53 257.566 257.487 0 017.834-13.136c.552-.856 1.137-1.712 1.697-2.569a240.659 240.584 0 017.105-10.294 223.072 223.003 0 0115.157-18.561 209.9 209.835 0 0131.459-28.291l.033-.025a460.959 460.816 0 00-317.29-126.536zm15.816 326.68l-24.84 98.899 36.183 9.359s1.182.354 3.29.885h.008c2.1.531 5.12 1.235 8.78 1.923h.008c.309.057.684.111 1 .168 3.452.626 7.365 1.236 11.649 1.672 12.862 1.305 28.53 1.091 41.315-4.505 3.484-1.523 6.755-3.446 9.7-5.85a36.698 36.687 0 005.416-5.477 37.007 36.996 0 004.324-6.884v-.007a41.655 41.655 0 001.701-4.015v-.007a46.306 46.306 0 001.343-4.422c.873-3.475 1.417-6.786 1.664-9.948.375-4.747.09-9.149-.725-13.23-.066-.333-.165-.65-.239-.98a44.565 44.551 0 00-.75-2.993 43.98 43.966 0 00-1.3-3.755l-.008-.007a44.643 44.63 0 00-3.484-6.917 49.874 49.859 0 00-3.419-4.826c-.342-.432-.667-.885-1.021-1.31a61.37 61.35 0 00-5.173-5.389c-6.376-5.867-13.782-10.285-20.594-13.534-7.785-3.706-14.787-5.888-18.6-6.922h-.007a65.052 65.032 0 00-2.999-.757zm-37.712 150.108L413.17 635.78 456.592 647s5.712 1.7 14.498 3.41c2.19.423 4.575.851 7.117 1.255h.007c.305.045.655.082.964.124 4.835.74 10.144 1.395 15.733 1.754a133.118 133.077 0 0018.329-.007 90.291 90.263 0 0013.629-2.01c7.352-1.708 14.23-4.488 19.976-8.758a38.935 38.935 0 003.307-2.742 37.612 37.6 0 007.999-10.549v-.007c.214-.42.383-.893.584-1.326 1.129-2.417 2.11-4.994 2.826-7.847 1.425-5.679 1.977-10.986 1.8-15.943v-.004a47.794 47.78 0 00-1.277-9.442v-.007a46.822 46.808 0 00-1.281-4.38c-1.969-5.7-4.959-10.81-8.608-15.371a65.591 65.57 0 00-5.923-6.44 83.438 83.412 0 00-6.635-5.662h-.007a95.901 95.871 0 00-7.085-4.924 121.792 121.754 0 00-14.448-7.741 147.551 147.551 0 00-12.995-5.18c-7.702-2.668-12.99-3.813-12.99-3.813z"/>
</svg>
