<!-- Generated by IcoMoon.io -->
<svg version="1.1" xmlns="http://www.w3.org/2000/svg" width="32" height="32" viewBox="0 0 32 32">
<title>rocket</title>
<path d="M22.398 3.877c-2.248 1.303-4.626 3.004-6.826 5.205-1.406 1.407-2.538 2.774-3.45 4.056l-5.574 1.030-6.547 6.551 5.838 0.182 4.111-4.111c-1.451 3.007-1.579 5.001-1.579 5.001l1.839 1.837c0 0 2.057-0.195 5.086-1.661l-4.199 4.194 0.184 5.84 6.55-6.548 1.034-5.602c1.294-0.907 2.662-2.033 4.054-3.423 2.201-2.202 3.901-4.579 5.205-6.827-1.437-0.292-2.754-0.89-3.794-1.927-1.040-1.043-1.642-2.36-1.931-3.797zM24.568 2.714c0.156 1.406 0.623 2.54 1.399 3.312 0.774 0.781 1.906 1.247 3.317 1.401 2.062-4.167 2.715-7.427 2.715-7.427s-3.26 0.652-7.431 2.714z"></path>
</svg>
